<?xml version="1.0" encoding="UTF-8"?>
<svg version="1.1" xmlns="http://www.w3.org/2000/svg" width="1024" height="1024">
<path d="M0 0 C337.92 0 675.84 0 1024 0 C1024 337.92 1024 675.84 1024 1024 C686.08 1024 348.16 1024 0 1024 C0 686.08 0 348.16 0 0 Z " fill="#171415" transform="translate(0,0)"/>
<path d="M0 0 C0.93054199 0.23783203 0.93054199 0.23783203 1.87988281 0.48046875 C3.99368371 1.03550607 6.08965305 1.63757324 8.1875 2.25 C9.22487305 2.53810547 9.22487305 2.53810547 10.28320312 2.83203125 C15.44292882 4.33321402 20.20486224 6.38136068 25.07006836 8.65283203 C29.1360404 10.52234571 33.26582655 12.2251041 37.39746094 13.94335938 C47.75168134 18.25223946 57.91136572 22.72818296 67.859375 27.90185547 C70.37283617 29.19126564 72.90370052 30.44244259 75.4375 31.69140625 C84.24480105 36.03706509 92.95134212 40.38888048 101.36328125 45.46484375 C104.12549855 47.07306805 106.93677068 48.48082211 109.8125 49.875 C134.68851416 62.16552083 134.68851416 62.16552083 139.703125 76.26953125 C142.75702903 84.61368659 146.36263175 92.61068516 150.1875 100.625 C150.87938502 102.08671729 151.57119613 103.54846956 152.26293945 105.01025391 C157.58302815 116.20960725 163.1147551 127.29974084 168.6875 138.375 C179.85317938 160.56631539 190.1872565 183.08154114 200.23171997 205.79922485 C204.08947345 214.52348307 207.9745549 223.2223073 212.125 231.8125 C221.98876628 252.23575603 231.12665006 272.97807728 239.74072266 293.95654297 C242.52724837 300.69109697 245.39315251 307.3925661 248.24682617 314.09887695 C250.26158799 318.844869 252.24927782 323.59551316 254.14453125 328.390625 C255.929181 332.89280959 257.98925158 337.21884629 260.14453125 341.5546875 C261.13076413 344.37378239 261.21149997 345.29660924 260 348 C258.68809607 349.73700585 257.30274394 351.41938452 255.875 353.0625 C252.82504455 356.68791875 250.09018403 360.26768348 247.625 364.3125 C243.74740814 370.5947312 239.18687393 376.26187958 234.58154297 382.01220703 C231.68799978 385.64901293 228.84782917 389.32737064 226 393 C216.2806231 405.50554569 206.48888232 417.93435804 196.46777344 430.20019531 C195.18503868 431.77310294 193.90840587 433.35098284 192.6328125 434.9296875 C181.65809177 448.47723654 170.06004624 461.41305853 158 474 C157.23864746 474.79639893 157.23864746 474.79639893 156.46191406 475.60888672 C146.92086374 485.53956813 146.92086374 485.53956813 142 488 C139.625 487.75 139.625 487.75 138 487 C138 485.68 138 484.36 138 483 C132.95014616 484.92642572 129.58238933 486.89838675 125.625 490.6875 C125.1295166 491.15591309 124.6340332 491.62432617 124.12353516 492.10693359 C123.02067521 493.15084931 121.92174517 494.1989279 120.82617188 495.25048828 C118.09393959 497.86802525 115.33590785 500.45792022 112.57958984 503.05004883 C111.15587826 504.3900405 109.73418028 505.7321763 108.31494141 507.0769043 C104.64610459 510.54698686 100.93474716 513.95071648 97.15234375 517.296875 C93.51346405 520.55539615 90.0599784 523.93061839 86.66796875 527.4453125 C85.76626953 528.37730469 84.86457031 529.30929687 83.93554688 530.26953125 C82.10522181 532.1714042 80.28484057 534.08289777 78.47460938 536.00390625 C72.73085742 541.89891715 67.2089436 545.84295229 59.84887695 549.515625 C52.13369633 553.53553229 45.65634847 561.13424195 42 569 C41.54237426 570.51489899 41.10519499 572.03610845 40.6875 573.5625 C39.27909108 578.20149661 36.84833756 580.35916332 33.109375 583.3203125 C31.0785569 584.93744543 29.30475505 586.6372941 27.5 588.5 C24.51242603 591.54164771 21.36011651 594.31598409 18.125 597.08984375 C14.8885008 599.99912336 11.89277292 603.1362875 8.8828125 606.27734375 C7 608 7 608 5 608 C5 608.66 5 609.32 5 610 C4.34 610 3.68 610 3 610 C2.5978125 610.928125 2.5978125 610.928125 2.1875 611.875 C1 614 1 614 -2 616 C-5 612.25 -5 612.25 -5 610 C-5.81017578 609.65388672 -5.81017578 609.65388672 -6.63671875 609.30078125 C-9.68410199 607.62346122 -12.19629339 605.45333605 -14.8125 603.1875 C-15.37291992 602.70684082 -15.93333984 602.22618164 -16.51074219 601.73095703 C-17.71464757 600.69700307 -18.91690691 599.66113 -20.11767578 598.62353516 C-22.02929566 596.97473202 -23.94946513 595.33634025 -25.87109375 593.69921875 C-32.19352727 588.29121629 -38.36488005 582.87673408 -44.0703125 576.8046875 C-45.97498464 574.87003175 -45.97498464 574.87003175 -48.62109375 573.5859375 C-51.62322635 571.58451576 -51.9754153 570.17712758 -52.9375 566.75 C-56.37787163 556.45597465 -62.90712157 552.41501268 -72 547 C-76.24190467 544.32917114 -79.48856069 541.56353782 -83 538 C-84.16789062 536.86691406 -84.16789062 536.86691406 -85.359375 535.7109375 C-90.60615764 530.5841793 -95.33230929 525.25959277 -99.91015625 519.53125 C-102.23167215 516.71939523 -104.71535042 514.19300749 -107.33203125 511.66015625 C-109.70890257 509.29441782 -111.87101215 506.76259999 -114.05859375 504.22265625 C-116.28804061 501.67023117 -118.58001382 499.18112486 -120.875 496.6875 C-125.02245258 492.14475315 -128.93232695 487.45880038 -132.79296875 482.671875 C-134.91623338 480.1014095 -137.11811849 477.64080637 -139.375 475.1875 C-143.37143489 470.80386726 -147.00672305 466.21570434 -150.63012695 461.52636719 C-154.12975727 457.02952063 -157.80038428 452.71611425 -161.5625 448.4375 C-170.24078803 438.53582415 -178.0439564 428.07547133 -185.6328125 417.32421875 C-187.69971488 414.40207513 -189.84618774 411.54627491 -192 408.6875 C-196.83041878 402.07745324 -200.82506499 394.98172653 -204.90283203 387.89453125 C-206.25732433 385.55566605 -207.65538075 383.24501966 -209.0625 380.9375 C-211.65859511 376.62546737 -214.14996106 372.25724228 -216.625 367.875 C-216.99761963 367.21749756 -217.37023926 366.55999512 -217.75415039 365.88256836 C-219.98515702 361.91241885 -222.06173002 357.90415461 -224.00415039 353.78442383 C-225.076767 351.86244422 -226.32001019 350.42422524 -227.8125 348.8125 C-230 346 -230 346 -229.87890625 343.83984375 C-228.67229095 339.94113564 -226.92704315 336.40509115 -225.125 332.75 C-221.93673963 326.1794897 -218.91998853 319.56305233 -216.04467773 312.84960938 C-210.83914665 300.72116206 -205.02949603 289.12958464 -198.50732422 277.65869141 C-197.00869167 275.01533078 -195.53549607 272.35909103 -194.06640625 269.69921875 C-177.60368583 240.10196153 -157.35213909 213.25853383 -134.27734375 188.5234375 C-132.00971694 186.10331938 -132.00971694 186.10331938 -130.31640625 183.6640625 C-129.88199219 183.11492187 -129.44757813 182.56578125 -129 182 C-128.34 182 -127.68 182 -127 182 C-126.7313916 181.40614502 -126.4627832 180.81229004 -126.18603516 180.20043945 C-124.99467768 177.99012555 -123.79788102 176.55352817 -122.0234375 174.79296875 C-121.43916992 174.20990967 -120.85490234 173.62685059 -120.25292969 173.02612305 C-119.32335449 172.11600464 -119.32335449 172.11600464 -118.375 171.1875 C-117.73981445 170.55948486 -117.10462891 169.93146973 -116.45019531 169.28442383 C-112.70018341 165.59908382 -108.90405726 162.00357757 -104.8828125 158.61328125 C-103.53449019 157.45797604 -102.22002111 156.2626992 -100.9296875 155.04296875 C-93.60276699 148.15069607 -85.53492308 142.4393607 -77.32714844 136.65087891 C-75.11347915 135.0805021 -72.9178129 133.4881737 -70.7265625 131.88671875 C-61.264828 125.01411525 -51.49156148 118.98733961 -41.28710938 113.28173828 C-39.09532087 112.05341957 -36.91354691 110.80912973 -34.734375 109.55859375 C-12.1237354 96.62474708 -12.1237354 96.62474708 -4 95 C-4 67.94 -4 40.88 -4 13 C-8.95 14.98 -13.9 16.96 -19 19 C-24.3203125 20.984375 -24.3203125 20.984375 -26.71630859 21.86206055 C-49.55747307 30.28222223 -70.4296458 41.98029259 -91.33984375 54.328125 C-91.96528076 54.69674652 -92.59071777 55.06536804 -93.23510742 55.44515991 C-96.39069276 57.30545385 -99.54151235 59.17297023 -102.68408203 61.05517578 C-108.44058203 64.48237136 -114.12646927 67.61006225 -120.35766602 70.11206055 C-125.23929281 72.1094925 -128.80128268 74.01054344 -131.2265625 78.91015625 C-132.83028078 82.76816968 -134.04763838 86.72631359 -135.25341797 90.72314453 C-136.37207044 94.13470534 -137.90978633 97.25748298 -139.5625 100.4375 C-139.88299316 101.06293701 -140.20348633 101.68837402 -140.53369141 102.33276367 C-141.25485005 103.73193328 -141.98006686 105.12901583 -142.70849609 106.52441406 C-144.23828636 109.45675306 -145.75379835 112.39630805 -147.26953125 115.3359375 C-157.08052703 134.33135124 -157.08052703 134.33135124 -160.703125 141.01171875 C-166.74920471 152.18947603 -171.96630838 163.64804962 -177.04296875 175.296875 C-180.23458515 182.59176715 -183.60563721 189.7981399 -187 197 C-187.61520279 198.307431 -188.23035542 199.6148856 -188.84545898 200.92236328 C-190.11038182 203.60986038 -191.37646307 206.29680809 -192.64331055 208.98339844 C-195.77194363 215.61892926 -198.89189023 222.25854455 -202.01190186 228.89813232 C-202.93832605 230.86880809 -203.86574531 232.83901213 -204.79345703 234.80908203 C-216.07203855 258.78631655 -226.58993443 283.03908538 -236.66967773 307.5402832 C-239.92092032 315.43149556 -243.23236357 323.29349309 -246.625 331.125 C-247.03903076 332.085271 -247.45306152 333.04554199 -247.87963867 334.03491211 C-248.26224854 334.91284424 -248.6448584 335.79077637 -249.0390625 336.6953125 C-249.37115723 337.45859863 -249.70325195 338.22188477 -250.04541016 339.00830078 C-251 341 -251 341 -253 344 C-252.6635323 347.6082259 -251.5483294 350.13712366 -249.62109375 353.16796875 C-249.1199707 353.96581787 -248.61884766 354.76366699 -248.10253906 355.58569336 C-247.27834473 356.87358765 -247.27834473 356.87358765 -246.4375 358.1875 C-245.25322429 360.06727886 -244.06966407 361.94750863 -242.88671875 363.828125 C-242.25685059 364.82521484 -241.62698242 365.82230469 -240.97802734 366.84960938 C-238.22665778 371.23169687 -235.52450599 375.64331452 -232.82202148 380.05566406 C-229.56084557 385.37837041 -226.28099876 390.68949833 -223 396 C-222.55172852 396.72832031 -222.10345703 397.45664062 -221.64160156 398.20703125 C-216.08060769 407.21276483 -209.89854243 415.6664707 -203.58984375 424.15625 C-200.10565648 428.84842738 -196.65455799 433.56220909 -193.25 438.3125 C-192.49819458 439.34274292 -192.49819458 439.34274292 -191.73120117 440.39379883 C-189.05446601 444.15110222 -187.20578248 447.4783157 -186 452 C-191.30064482 448.19440884 -194.70443544 443.53427023 -198.53125 438.28515625 C-200.93060322 435.0358724 -203.53761312 431.98347422 -206.1875 428.9375 C-216.0806824 417.46824101 -224.68536353 404.91692136 -233.44921875 392.578125 C-236.94329938 387.66453084 -240.48988912 382.78878594 -244.02783203 377.90673828 C-246.80744665 374.06314851 -249.56586924 370.2068675 -252.28515625 366.3203125 C-252.81512207 365.56339111 -253.34508789 364.80646973 -253.89111328 364.02661133 C-254.88631165 362.60168964 -255.87842811 361.17460793 -256.86669922 359.74487305 C-257.54949951 358.76707886 -257.54949951 358.76707886 -258.24609375 357.76953125 C-258.90714111 356.81747803 -258.90714111 356.81747803 -259.58154297 355.84619141 C-260.97318213 353.94755497 -260.97318213 353.94755497 -262.75048828 352.27490234 C-266.94161515 348.13606059 -266.94161515 348.13606059 -267.10498047 344.95727539 C-265.87752087 338.57320538 -262.77640618 332.6108725 -260.0625 326.75 C-255.91314003 317.56887413 -252.13173851 308.31962737 -248.625 298.875 C-238.70309701 272.31053213 -227.18906529 246.5351427 -215.24121094 220.82958984 C-212.97460571 215.95036395 -210.72412407 211.0638028 -208.4765625 206.17578125 C-200.62502896 189.10697763 -192.71087028 172.06973492 -184.68945312 155.08007812 C-180.03618647 145.22192247 -175.44411184 135.3372063 -170.88183594 125.43652344 C-167.99303861 119.19693692 -165.03632022 112.99685579 -162 106.828125 C-161.4919558 105.79258736 -161.4919558 105.79258736 -160.97364807 104.73612976 C-159.33540434 101.39779825 -157.68848087 98.0644261 -156.02319336 94.73950195 C-151.69786016 86.00779533 -148.58689636 77.25046758 -146.19018555 67.81030273 C-144.73170212 64.3664868 -143.58692947 63.68636684 -140.265625 62.0703125 C-139.30615967 61.58933105 -138.34669434 61.10834961 -137.3581543 60.61279297 C-136.33246338 60.12182129 -135.30677246 59.63084961 -134.25 59.125 C-132.1357113 58.0697244 -130.02242488 57.01243823 -127.91015625 55.953125 C-126.88680176 55.44587891 -125.86344727 54.93863281 -124.80908203 54.41601562 C-121.36088334 52.67783099 -118.02652095 50.81454936 -114.6875 48.875 C-86.49014797 32.52188176 -57.52826832 15.86421037 -26.41845703 5.79833984 C-23.91883687 4.97320781 -21.44213144 4.09681882 -18.96484375 3.20703125 C-17.35161484 2.63787246 -15.73833559 2.06885632 -14.125 1.5 C-13.39369873 1.2321167 -12.66239746 0.9642334 -11.90893555 0.68823242 C-7.4707847 -0.84060808 -4.5278194 -1.20113805 0 0 Z " fill="#131212" transform="translate(530,145)"/>
<path d="M0 0 C0.93054199 0.23783203 0.93054199 0.23783203 1.87988281 0.48046875 C3.99368371 1.03550607 6.08965305 1.63757324 8.1875 2.25 C9.22487305 2.53810547 9.22487305 2.53810547 10.28320312 2.83203125 C15.44292882 4.33321402 20.20486224 6.38136068 25.07006836 8.65283203 C29.1360404 10.52234571 33.26582655 12.2251041 37.39746094 13.94335938 C47.75168134 18.25223946 57.91136572 22.72818296 67.859375 27.90185547 C70.37283617 29.19126564 72.90370052 30.44244259 75.4375 31.69140625 C84.24480105 36.03706509 92.95134212 40.38888048 101.36328125 45.46484375 C104.12549855 47.07306805 106.93677068 48.48082211 109.8125 49.875 C134.68851416 62.16552083 134.68851416 62.16552083 139.703125 76.26953125 C142.75702903 84.61368659 146.36263175 92.61068516 150.1875 100.625 C150.87938502 102.08671729 151.57119613 103.54846956 152.26293945 105.01025391 C157.58302815 116.20960725 163.1147551 127.29974084 168.6875 138.375 C179.85317938 160.56631539 190.1872565 183.08154114 200.23171997 205.79922485 C204.08947345 214.52348307 207.9745549 223.2223073 212.125 231.8125 C221.98876628 252.23575603 231.12665006 272.97807728 239.74072266 293.95654297 C242.52724837 300.69109697 245.39315251 307.3925661 248.24682617 314.09887695 C250.26158799 318.844869 252.24927782 323.59551316 254.14453125 328.390625 C255.929181 332.89280959 257.98925158 337.21884629 260.14453125 341.5546875 C261.13076413 344.37378239 261.21149997 345.29660924 260 348 C258.68809607 349.73700585 257.30274394 351.41938452 255.875 353.0625 C252.82504455 356.68791875 250.09018403 360.26768348 247.625 364.3125 C243.74740814 370.5947312 239.18687393 376.26187958 234.58154297 382.01220703 C231.68799978 385.64901293 228.84782917 389.32737064 226 393 C216.2806231 405.50554569 206.48888232 417.93435804 196.46777344 430.20019531 C195.18503868 431.77310294 193.90840587 433.35098284 192.6328125 434.9296875 C181.65809177 448.47723654 170.06004624 461.41305853 158 474 C157.23864746 474.79639893 157.23864746 474.79639893 156.46191406 475.60888672 C146.92086374 485.53956813 146.92086374 485.53956813 142 488 C139.625 487.75 139.625 487.75 138 487 C138 485.68 138 484.36 138 483 C132.95014616 484.92642572 129.58238933 486.89838675 125.625 490.6875 C125.1295166 491.15591309 124.6340332 491.62432617 124.12353516 492.10693359 C123.02067521 493.15084931 121.92174517 494.1989279 120.82617188 495.25048828 C118.09393959 497.86802525 115.33590785 500.45792022 112.57958984 503.05004883 C111.15587826 504.3900405 109.73418028 505.7321763 108.31494141 507.0769043 C104.64610459 510.54698686 100.93474716 513.95071648 97.15234375 517.296875 C93.51346405 520.55539615 90.0599784 523.93061839 86.66796875 527.4453125 C85.76626953 528.37730469 84.86457031 529.30929687 83.93554688 530.26953125 C82.10522181 532.1714042 80.28484057 534.08289777 78.47460938 536.00390625 C72.73085742 541.89891715 67.2089436 545.84295229 59.84887695 549.515625 C52.13369633 553.53553229 45.65634847 561.13424195 42 569 C41.54237426 570.51489899 41.10519499 572.03610845 40.6875 573.5625 C39.27909108 578.20149661 36.84833756 580.35916332 33.109375 583.3203125 C31.0785569 584.93744543 29.30475505 586.6372941 27.5 588.5 C24.51242603 591.54164771 21.36011651 594.31598409 18.125 597.08984375 C14.8885008 599.99912336 11.89277292 603.1362875 8.8828125 606.27734375 C7 608 7 608 5 608 C5 608.66 5 609.32 5 610 C4.34 610 3.68 610 3 610 C2.5978125 610.928125 2.5978125 610.928125 2.1875 611.875 C1 614 1 614 -2 616 C-5 612.25 -5 612.25 -5 610 C-5.81017578 609.65388672 -5.81017578 609.65388672 -6.63671875 609.30078125 C-9.68410199 607.62346122 -12.19629339 605.45333605 -14.8125 603.1875 C-15.37291992 602.70684082 -15.93333984 602.22618164 -16.51074219 601.73095703 C-17.71464757 600.69700307 -18.91690691 599.66113 -20.11767578 598.62353516 C-22.02929566 596.97473202 -23.94946513 595.33634025 -25.87109375 593.69921875 C-32.19352727 588.29121629 -38.36488005 582.87673408 -44.0703125 576.8046875 C-45.97498464 574.87003175 -45.97498464 574.87003175 -48.62109375 573.5859375 C-51.62322635 571.58451576 -51.9754153 570.17712758 -52.9375 566.75 C-56.37787163 556.45597465 -62.90712157 552.41501268 -72 547 C-76.24190467 544.32917114 -79.48856069 541.56353782 -83 538 C-84.16789062 536.86691406 -84.16789062 536.86691406 -85.359375 535.7109375 C-90.60615764 530.5841793 -95.33230929 525.25959277 -99.91015625 519.53125 C-102.23167215 516.71939523 -104.71535042 514.19300749 -107.33203125 511.66015625 C-109.70890257 509.29441782 -111.87101215 506.76259999 -114.05859375 504.22265625 C-116.28804061 501.67023117 -118.58001382 499.18112486 -120.875 496.6875 C-125.02245258 492.14475315 -128.93232695 487.45880038 -132.79296875 482.671875 C-134.91623338 480.1014095 -137.11811849 477.64080637 -139.375 475.1875 C-143.37143489 470.80386726 -147.00672305 466.21570434 -150.63012695 461.52636719 C-154.12975727 457.02952063 -157.80038428 452.71611425 -161.5625 448.4375 C-170.24078803 438.53582415 -178.0439564 428.07547133 -185.6328125 417.32421875 C-187.69971488 414.40207513 -189.84618774 411.54627491 -192 408.6875 C-196.83041878 402.07745324 -200.82506499 394.98172653 -204.90283203 387.89453125 C-206.25732433 385.55566605 -207.65538075 383.24501966 -209.0625 380.9375 C-211.65859511 376.62546737 -214.14996106 372.25724228 -216.625 367.875 C-216.99761963 367.21749756 -217.37023926 366.55999512 -217.75415039 365.88256836 C-219.98515702 361.91241885 -222.06173002 357.90415461 -224.00415039 353.78442383 C-225.076767 351.86244422 -226.32001019 350.42422524 -227.8125 348.8125 C-230 346 -230 346 -229.87890625 343.83984375 C-228.67229095 339.94113564 -226.92704315 336.40509115 -225.125 332.75 C-221.93673963 326.1794897 -218.91998853 319.56305233 -216.04467773 312.84960938 C-210.83914665 300.72116206 -205.02949603 289.12958464 -198.50732422 277.65869141 C-197.00869167 275.01533078 -195.53549607 272.35909103 -194.06640625 269.69921875 C-177.60368583 240.10196153 -157.35213909 213.25853383 -134.27734375 188.5234375 C-132.00971694 186.10331938 -132.00971694 186.10331938 -130.31640625 183.6640625 C-129.88199219 183.11492187 -129.44757813 182.56578125 -129 182 C-128.34 182 -127.68 182 -127 182 C-126.7313916 181.40614502 -126.4627832 180.81229004 -126.18603516 180.20043945 C-124.99467768 177.99012555 -123.79788102 176.55352817 -122.0234375 174.79296875 C-121.43916992 174.20990967 -120.85490234 173.62685059 -120.25292969 173.02612305 C-119.32335449 172.11600464 -119.32335449 172.11600464 -118.375 171.1875 C-117.73981445 170.55948486 -117.10462891 169.93146973 -116.45019531 169.28442383 C-112.70018341 165.59908382 -108.90405726 162.00357757 -104.8828125 158.61328125 C-103.53449019 157.45797604 -102.22002111 156.2626992 -100.9296875 155.04296875 C-93.60276699 148.15069607 -85.53492308 142.4393607 -77.32714844 136.65087891 C-75.11347915 135.0805021 -72.9178129 133.4881737 -70.7265625 131.88671875 C-61.264828 125.01411525 -51.49156148 118.98733961 -41.28710938 113.28173828 C-39.09532087 112.05341957 -36.91354691 110.80912973 -34.734375 109.55859375 C-12.1237354 96.62474708 -12.1237354 96.62474708 -4 95 C-4 67.94 -4 40.88 -4 13 C-8.95 14.98 -13.9 16.96 -19 19 C-24.3203125 20.984375 -24.3203125 20.984375 -26.71630859 21.86206055 C-49.55747307 30.28222223 -70.4296458 41.98029259 -91.33984375 54.328125 C-91.96528076 54.69674652 -92.59071777 55.06536804 -93.23510742 55.44515991 C-96.39069276 57.30545385 -99.54151235 59.17297023 -102.68408203 61.05517578 C-108.44058203 64.48237136 -114.12646927 67.61006225 -120.35766602 70.11206055 C-125.23929281 72.1094925 -128.80128268 74.01054344 -131.2265625 78.91015625 C-132.83028078 82.76816968 -134.04763838 86.72631359 -135.25341797 90.72314453 C-136.37207044 94.13470534 -137.90978633 97.25748298 -139.5625 100.4375 C-139.88299316 101.06293701 -140.20348633 101.68837402 -140.53369141 102.33276367 C-141.25485005 103.73193328 -141.98006686 105.12901583 -142.70849609 106.52441406 C-144.23828636 109.45675306 -145.75379835 112.39630805 -147.26953125 115.3359375 C-157.08052703 134.33135124 -157.08052703 134.33135124 -160.703125 141.01171875 C-166.74920471 152.18947603 -171.96630838 163.64804962 -177.04296875 175.296875 C-180.23458515 182.59176715 -183.60563721 189.7981399 -187 197 C-187.61520279 198.307431 -188.23035542 199.6148856 -188.84545898 200.92236328 C-190.11038182 203.60986038 -191.37646307 206.29680809 -192.64331055 208.98339844 C-195.77194363 215.61892926 -198.89189023 222.25854455 -202.01190186 228.89813232 C-202.93832605 230.86880809 -203.86574531 232.83901213 -204.79345703 234.80908203 C-216.07203855 258.78631655 -226.58993443 283.03908538 -236.66967773 307.5402832 C-239.92092032 315.43149556 -243.23236357 323.29349309 -246.625 331.125 C-247.03903076 332.085271 -247.45306152 333.04554199 -247.87963867 334.03491211 C-248.26224854 334.91284424 -248.6448584 335.79077637 -249.0390625 336.6953125 C-249.37115723 337.45859863 -249.70325195 338.22188477 -250.04541016 339.00830078 C-251 341 -251 341 -253 344 C-252.6635323 347.6082259 -251.5483294 350.13712366 -249.62109375 353.16796875 C-249.1199707 353.96581787 -248.61884766 354.76366699 -248.10253906 355.58569336 C-247.27834473 356.87358765 -247.27834473 356.87358765 -246.4375 358.1875 C-245.25322429 360.06727886 -244.06966407 361.94750863 -242.88671875 363.828125 C-242.25685059 364.82521484 -241.62698242 365.82230469 -240.97802734 366.84960938 C-238.22665778 371.23169687 -235.52450599 375.64331452 -232.82202148 380.05566406 C-229.56084557 385.37837041 -226.28099876 390.68949833 -223 396 C-222.55172852 396.72832031 -222.10345703 397.45664062 -221.64160156 398.20703125 C-216.08060769 407.21276483 -209.89854243 415.6664707 -203.58984375 424.15625 C-200.10565648 428.84842738 -196.65455799 433.56220909 -193.25 438.3125 C-192.49819458 439.34274292 -192.49819458 439.34274292 -191.73120117 440.39379883 C-189.05446601 444.15110222 -187.20578248 447.4783157 -186 452 C-191.30064482 448.19440884 -194.70443544 443.53427023 -198.53125 438.28515625 C-200.93060322 435.0358724 -203.53761312 431.98347422 -206.1875 428.9375 C-216.0806824 417.46824101 -224.68536353 404.91692136 -233.44921875 392.578125 C-236.94329938 387.66453084 -240.48988912 382.78878594 -244.02783203 377.90673828 C-246.80744665 374.06314851 -249.56586924 370.2068675 -252.28515625 366.3203125 C-252.81512207 365.56339111 -253.34508789 364.80646973 -253.89111328 364.02661133 C-254.88631165 362.60168964 -255.87842811 361.17460793 -256.86669922 359.74487305 C-257.54949951 358.76707886 -257.54949951 358.76707886 -258.24609375 357.76953125 C-258.90714111 356.81747803 -258.90714111 356.81747803 -259.58154297 355.84619141 C-260.97318213 353.94755497 -260.97318213 353.94755497 -262.75048828 352.27490234 C-266.94161515 348.13606059 -266.94161515 348.13606059 -267.10498047 344.95727539 C-265.87752087 338.57320538 -262.77640618 332.6108725 -260.0625 326.75 C-255.91314003 317.56887413 -252.13173851 308.31962737 -248.625 298.875 C-238.70309701 272.31053213 -227.18906529 246.5351427 -215.24121094 220.82958984 C-212.97460571 215.95036395 -210.72412407 211.0638028 -208.4765625 206.17578125 C-200.62502896 189.10697763 -192.71087028 172.06973492 -184.68945312 155.08007812 C-180.03618647 145.22192247 -175.44411184 135.3372063 -170.88183594 125.43652344 C-167.99303861 119.19693692 -165.03632022 112.99685579 -162 106.828125 C-161.4919558 105.79258736 -161.4919558 105.79258736 -160.97364807 104.73612976 C-159.33540434 101.39779825 -157.68848087 98.0644261 -156.02319336 94.73950195 C-151.69786016 86.00779533 -148.58689636 77.25046758 -146.19018555 67.81030273 C-144.73170212 64.3664868 -143.58692947 63.68636684 -140.265625 62.0703125 C-139.30615967 61.58933105 -138.34669434 61.10834961 -137.3581543 60.61279297 C-136.33246338 60.12182129 -135.30677246 59.63084961 -134.25 59.125 C-132.1357113 58.0697244 -130.02242488 57.01243823 -127.91015625 55.953125 C-126.88680176 55.44587891 -125.86344727 54.93863281 -124.80908203 54.41601562 C-121.36088334 52.67783099 -118.02652095 50.81454936 -114.6875 48.875 C-86.49014797 32.52188176 -57.52826832 15.86421037 -26.41845703 5.79833984 C-23.91883687 4.97320781 -21.44213144 4.09681882 -18.96484375 3.20703125 C-17.35161484 2.63787246 -15.73833559 2.06885632 -14.125 1.5 C-13.39369873 1.2321167 -12.66239746 0.9642334 -11.90893555 0.68823242 C-7.4707847 -0.84060808 -4.5278194 -1.20113805 0 0 Z M-10.1875 109.6875 C-15.72617643 113.08012685 -21.32857647 116.32078316 -27.0090332 119.47021484 C-45.72651086 129.86934503 -64.14629623 140.86672818 -80.50976562 154.74951172 C-82.69003367 156.57902236 -84.94164607 158.31454765 -87.1875 160.0625 C-96.74687488 167.75965899 -105.45209103 176.34250506 -114.15396118 184.97872925 C-115.15990463 185.9766253 -116.16732319 186.973037 -117.17636108 187.96780396 C-123.92144086 194.6276223 -130.08611174 201.58247974 -136 209 C-136.94732743 210.12450912 -137.90054902 211.24411972 -138.86328125 212.35546875 C-161.18161466 238.16215411 -180.18152232 267.41142043 -195.06591797 298.08789062 C-196.28498664 300.5833809 -197.53839729 303.06078889 -198.79248047 305.53881836 C-200.13237018 308.19570828 -201.45157178 310.86268462 -202.77099609 313.52978516 C-203.68708209 315.37105614 -204.61045827 317.2087035 -205.53759766 319.04443359 C-207.22803326 322.39712263 -208.89644401 325.7601394 -210.5625 329.125 C-211.11196289 330.20450928 -211.66142578 331.28401855 -212.22753906 332.39624023 C-212.98309082 333.93646851 -212.98309082 333.93646851 -213.75390625 335.5078125 C-214.21095947 336.42191895 -214.6680127 337.33602539 -215.13891602 338.27783203 C-216.21078503 341.66636039 -215.96781549 343.5946399 -215 347 C-213.61720089 349.4828817 -213.61720089 349.4828817 -211.80859375 351.7734375 C-208.28262099 356.58182692 -205.14989024 361.5278183 -202.0625 366.625 C-191.35964669 384.06598651 -180.13101495 401.07867174 -167.45214844 417.15087891 C-165.61190431 419.4941891 -163.80670589 421.86315072 -162.00170898 424.23364258 C-157.14124316 430.60713813 -152.13010601 436.8421599 -147 443 C-146.57605957 443.51030762 -146.15211914 444.02061523 -145.71533203 444.54638672 C-140.29386932 451.06125367 -134.7490536 457.41989147 -128.97827148 463.62744141 C-126.08270539 466.76142954 -123.35069228 469.97981761 -120.6875 473.3125 C-115.83098618 479.350328 -110.52987384 484.93221609 -105.21875 490.56640625 C-102.34287149 493.62038568 -99.56486475 496.74283387 -96.828125 499.921875 C-93.84913945 503.30824319 -90.77180949 506.60398822 -87.70068359 509.90673828 C-85.47368702 512.30556403 -83.25741685 514.70833992 -81.09130859 517.16259766 C-74.48767902 524.62908935 -67.45987206 531.62107588 -60.375 538.625 C-46.69964402 552.14503826 -46.69964402 552.14503826 -41.40087891 558.37646484 C-39.38767536 560.70964777 -37.20691987 562.85115697 -35 565 C-32.09336175 567.83014777 -29.3457438 570.72562688 -26.69921875 573.796875 C-22.92764 578.14751823 -18.90726907 582.20521403 -14.8125 586.25 C-14.11447266 586.94351562 -13.41644531 587.63703125 -12.69726562 588.3515625 C-11.37163952 589.66835951 -10.04504756 590.98418523 -8.71728516 592.29882812 C-6.80522226 594.19295014 -4.9006553 596.09443344 -3 598 C5.8773378 594.33732217 12.93052798 583.99858114 18.74609375 576.6953125 C21.83429862 573.00231187 25.23374269 569.68461989 28.671875 566.3203125 C31.26304174 563.73784095 33.64669934 561.03632322 36.02734375 558.26171875 C42.44033454 550.90900258 49.11986679 543.78898402 56.07885742 536.95214844 C57.88291091 535.11897883 59.57087731 533.23584714 61.24609375 531.28515625 C64.97106442 526.99949038 68.84121261 522.86769385 72.75 518.75 C77.422638 513.81181024 82.06398651 508.85397634 86.625 503.8125 C90.66022551 499.3761828 94.85161709 495.14381825 99.125 490.9375 C104.02680072 486.10283822 108.5091306 481.12940004 112.78515625 475.72265625 C115.2903188 472.64311781 117.92878571 469.7242474 120.625 466.8125 C121.33523315 466.04413818 121.33523315 466.04413818 122.05981445 465.26025391 C122.51960693 464.76315918 122.97939941 464.26606445 123.453125 463.75390625 C138.13011713 447.88384574 151.26688252 430.54927782 164.39282227 413.39135742 C166.02833858 411.25740242 167.67800376 409.13779991 169.34008789 407.02416992 C175.44455923 399.22578441 181.00263715 391.19039307 186.375 382.875 C187.20147816 381.60467473 188.02830544 380.33457652 188.85546875 379.06469727 C194.12093506 370.96727127 199.32720721 362.83221371 204.43505859 354.63427734 C204.86898926 353.93898926 205.30291992 353.24370117 205.75 352.52734375 C206.33394531 351.58544189 206.33394531 351.58544189 206.9296875 350.62451172 C208 349 208 349 209.875 346.81640625 C211.2417115 345.03243783 211.2417115 345.03243783 210.72729492 342.75048828 C209.29644002 337.33927265 206.66840634 332.37218359 204.3125 327.3125 C203.79494141 326.17876953 203.27738281 325.04503906 202.74414062 323.87695312 C199.91782521 317.77028159 196.89138476 311.95322775 193.35083008 306.23217773 C191.42030234 303.04207921 189.80126387 299.73303021 188.1875 296.375 C174.49894491 268.59615691 156.94735022 242.46364468 137.28271484 218.57080078 C135.46565088 216.34564099 133.70614656 214.0762241 131.9375 211.8125 C128.43654364 207.42346038 124.68871129 203.29439827 120.85522461 199.1965332 C118.08858717 196.23325122 115.50931829 193.18281497 113 190 C110.97959252 187.72808584 110.97959252 187.72808584 109 186 C108.34 186 107.68 186 107 186 C106.73227783 185.40324463 106.46455566 184.80648926 106.1887207 184.19165039 C104.98380341 181.97013826 103.82434648 180.6409085 101.98046875 178.93359375 C101.3767041 178.37099854 100.77293945 177.80840332 100.15087891 177.22875977 C99.50296387 176.63764404 98.85504883 176.04652832 98.1875 175.4375 C97.51895996 174.82124756 96.85041992 174.20499512 96.16162109 173.57006836 C75.92007451 155.03088037 53.97834555 139.17915704 30.28515625 125.33886719 C26.90287999 123.3572002 23.54556776 121.33481093 20.1875 119.3125 C19.00006014 118.60146205 17.81256067 117.89052365 16.625 117.1796875 C14.01338913 115.61358385 11.41131753 114.03254986 8.8125 112.4453125 C8.12260986 112.02596436 7.43271973 111.60661621 6.72192383 111.17456055 C5.3940449 110.36712475 4.06825495 109.55624054 2.74487305 108.74145508 C-3.10970373 105.19050103 -4.67610812 106.26124411 -10.1875 109.6875 Z " fill="#FBFBFB" transform="translate(530,145)"/>
<path d="M0 0 C1.84721108 0.95859807 3.70481429 1.89439409 5.56445312 2.82861328 C6.72460938 3.42544922 7.88476562 4.02228516 9.08007812 4.63720703 C10.09585937 5.15669922 11.11164063 5.67619141 12.15820312 6.21142578 C16.61541011 9.11121688 18.47541939 11.56937523 19.80664062 16.75048828 C20.04176014 18.25154519 20.25667547 19.75585733 20.45507812 21.26220703 C20.57278564 22.08253418 20.69049316 22.90286133 20.81176758 23.74804688 C26.88533115 68.17158957 26.88533115 68.17158957 20.83007812 79.94970703 C15.40620141 85.10238991 10.60738127 85.36777128 3.37792969 85.30664062 C-2.44587355 84.72073364 -7.12946784 82.39219964 -12.29492188 79.76220703 C-14.29749684 78.78949066 -16.30010085 77.81683409 -18.30273438 76.84423828 C-19.2749292 76.36180664 -20.24712402 75.879375 -21.2487793 75.38232422 C-77.34015505 47.87340714 -131.02468364 42.33475365 -190.56469727 62.49536133 C-202.08432012 66.50897802 -213.0565093 71.29625296 -223.88867188 76.89501953 C-244.61476101 87.47597662 -244.61476101 87.47597662 -255.16992188 84.94970703 C-260.63954732 82.56873344 -263.71894913 80.06807098 -266.26660156 74.59277344 C-269.67542162 64.61875022 -266.77728686 50.99590121 -266.10791016 40.57519531 C-265.98194129 38.56460139 -265.86385491 36.55349902 -265.75341797 34.54199219 C-265.59198691 31.60623261 -265.40703771 28.67278638 -265.21679688 25.73876953 C-265.17182068 24.84493561 -265.12684448 23.95110168 -265.08050537 23.03018188 C-264.69626908 17.61817425 -263.78609877 14.23237212 -260.16992188 9.94970703 C-259.17992187 9.28970703 -258.18992187 8.62970703 -257.16992188 7.94970703 C-255.4809624 17.59153397 -254.94597473 27.10973952 -254.66992188 36.88720703 C-255.01888613 55.20900281 -255.01888613 55.20900281 -249.16992188 71.94970703 C-242.28376036 71.4932196 -236.69640813 68.74144874 -230.48242188 65.88720703 C-228.24005957 64.87948653 -225.99655403 63.87430636 -223.75195312 62.87158203 C-222.64029785 62.37464844 -221.52864258 61.87771484 -220.38330078 61.36572266 C-205.15798233 54.65649556 -189.4945982 48.48920627 -173.44360352 44.06176758 C-165.90754597 41.97576821 -159.61248022 39.53081325 -153.16992188 34.94970703 C-152.49316406 34.49208984 -151.81640625 34.03447266 -151.11914062 33.56298828 C-148.8437995 31.99427483 -146.65519073 30.48446507 -144.79101562 28.43017578 C-142.77107431 26.58545829 -140.731529 25.84973116 -138.16992188 24.94970703 C-139.30429687 25.22685547 -140.43867188 25.50400391 -141.60742188 25.78955078 C-143.12820036 26.15566412 -144.64903682 26.52153666 -146.16992188 26.88720703 C-147.28560547 27.16081055 -147.28560547 27.16081055 -148.42382812 27.43994141 C-153.33134947 28.61347912 -158.15246975 29.40805027 -163.16992188 29.94970703 C-163.49992187 30.93970703 -163.82992187 31.92970703 -164.16992188 32.94970703 C-166.90642259 33.7785803 -169.49951334 34.40597378 -172.29492188 34.94970703 C-173.1124292 35.11994385 -173.92993652 35.29018066 -174.7722168 35.46557617 C-177.23542554 35.97498259 -179.70158725 36.46580964 -182.16992188 36.94970703 C-183.42160156 37.19591797 -184.67328125 37.44212891 -185.96289062 37.69580078 C-188.33355867 38.1615147 -190.704663 38.62501264 -193.07617188 39.08642578 C-199.19049316 40.33130407 -205.2432694 41.87759712 -211.2902832 43.41235352 C-212.15419678 43.62577393 -213.01811035 43.83919434 -213.90820312 44.05908203 C-215.06896362 44.35250488 -215.06896362 44.35250488 -216.25317383 44.65185547 C-218.16992188 44.94970703 -218.16992188 44.94970703 -220.16992188 43.94970703 C-213.95529674 39.85714902 -207.14788788 37.83618845 -200.11767578 35.57763672 C-188.15261947 31.72026334 -175.95032539 27.24995061 -165.13354492 20.72045898 C-158.62868484 16.79962938 -151.94107027 14.97569221 -144.60742188 13.13720703 C-143.40794922 12.82589844 -142.20847656 12.51458984 -140.97265625 12.19384766 C-138.04107501 11.43467323 -135.10707977 10.68695252 -132.16992188 9.94970703 C-150.53579956 9.51529731 -167.38094522 12.65222365 -185.16992188 16.94970703 C-186.72332275 17.32216553 -186.72332275 17.32216553 -188.30810547 17.70214844 C-203.85420139 21.36600006 -203.85420139 21.36600006 -218.99804688 26.38330078 C-221.45173957 27.02320265 -222.80316533 26.78024316 -225.16992188 25.94970703 C-215.1537087 21.63078942 -205.08023319 17.82545562 -194.71044922 14.44018555 C-186.79135954 11.84993154 -178.94747106 9.11350008 -171.34960938 5.67236328 C-162.5485138 1.72745804 -153.58135807 -0.18583793 -144.16992188 -2.05029297 C-142.31834669 -2.4213234 -140.46678416 -2.79241702 -138.61523438 -3.16357422 C-137.1335 -3.45932986 -135.65174263 -3.75497045 -134.16992188 -4.05029297 C-150.9843367 -4.31754739 -165.50602543 -3.82362797 -181.67773438 1.07470703 C-186.20771288 2.2097352 -190.59813225 2.44339631 -195.24804688 2.66455078 C-199.27272712 3.05733375 -202.44373756 4.43163194 -206.16992188 5.94970703 C-207.15992188 5.61970703 -208.14992188 5.28970703 -209.16992188 4.94970703 C-202.48490612 1.20855142 -195.95225871 -0.65212209 -188.48242188 -1.98779297 C-182.12645336 -3.13031333 -176.27234031 -4.53555841 -170.29492188 -6.98779297 C-157.11313296 -12.34061416 -142.42373417 -15.7195083 -128.16992188 -16.05029297 C-145.68458152 -16.8471654 -145.68458152 -16.8471654 -162.29492188 -12.54638672 C-167.57747299 -10.13880351 -173.39566178 -10.25314864 -179.10742188 -9.92529297 C-181.38747786 -9.77852483 -183.66742953 -9.63012565 -185.94726562 -9.47998047 C-187.0157373 -9.41133789 -188.08420898 -9.34269531 -189.18505859 -9.27197266 C-192.87226714 -8.99813122 -196.50888451 -8.56238899 -200.16992188 -8.05029297 C-193.58758912 -14.63262572 -180.9394013 -15.09805309 -172.07617188 -16.43701172 C-168.06664164 -17.0358809 -168.06664164 -17.0358809 -164.16992188 -18.05029297 C-163.83992188 -18.71029297 -163.50992188 -19.37029297 -163.16992188 -20.05029297 C-162.17992187 -20.38029297 -161.18992187 -20.71029297 -160.16992188 -21.05029297 C-159.06583984 -22.24912109 -159.06583984 -22.24912109 -157.93945312 -23.47216797 C-154.63770272 -26.5457297 -152.21509687 -27.24982177 -147.85742188 -28.30029297 C-146.60316406 -28.61482422 -145.34890625 -28.92935547 -144.05664062 -29.25341797 C-95.2274854 -39.26462165 -42.91080534 -22.37687012 0 0 Z " fill="#FBFCFC" transform="translate(648.169921875,389.05029296875)"/>
<path d="M0 0 C0.66 0 1.32 0 2 0 C2.20677081 5.89096058 1.41720025 11.35500178 0.390625 17.1484375 C0.1385025 18.60462997 0.1385025 18.60462997 -0.11871338 20.09024048 C-0.47568052 22.14318197 -0.835585 24.19561462 -1.19824219 26.24755859 C-1.7418921 29.32904328 -2.27401304 32.41235137 -2.8046875 35.49609375 C-9.23199191 72.45495665 -23.67056815 95.93578122 -47 125 C-47.52480957 125.65629395 -48.04961914 126.31258789 -48.59033203 126.98876953 C-54.55520632 134.438297 -60.55167002 141.81573866 -67.02734375 148.83203125 C-68.30462662 150.23577777 -69.54976056 151.66975284 -70.75390625 153.13671875 C-78.78680115 162.92156752 -90.3379493 170.11780327 -103 172 C-119.49539169 173.12678487 -119.49539169 173.12678487 -126 168 C-129.81326087 164.66339674 -131.35272254 162.10624809 -131.75 157.125 C-131.46726999 152.03585983 -129.65793855 149.33592301 -126.09765625 145.796875 C-118.30978818 139.12570309 -109.05094549 134.69838277 -100 130 C-103.1264687 128.95784377 -105.78659132 128.67157339 -109.06640625 128.38671875 C-110.87915039 128.2155957 -110.87915039 128.2155957 -112.72851562 128.04101562 C-115.256337 127.80793581 -117.78499829 127.58376902 -120.31445312 127.36914062 C-129.96261668 126.43445882 -138.70042006 124.81294128 -146 118 C-145.67 117.01 -145.34 116.02 -145 115 C-141.63333529 113.31666765 -137.81111179 113.69506801 -134.1015625 113.5703125 C-132.23956877 113.49645991 -130.37759008 113.42222749 -128.515625 113.34765625 C-125.60071869 113.23580519 -122.68580297 113.12711136 -119.77050781 113.02587891 C-106.32018936 112.54932943 -93.26655228 111.28558935 -80 109 C-81.12172607 108.45351807 -81.12172607 108.45351807 -82.26611328 107.89599609 C-84.04980469 107.02701823 -85.83349609 106.15804036 -87.6171875 105.2890625 C-96.37515141 101.95173214 -105.21293317 101.64927405 -114.5 101.4375 C-122.37806451 101.23156617 -130.17021578 100.92961948 -138 100 C-138 99.34 -138 98.68 -138 98 C-135.65339547 96.41528005 -133.30554873 94.94588615 -130.875 93.5 C-113.22967777 82.71411409 -101.71087921 73.85915117 -94 54 C-95.04800781 54.49371094 -96.09601562 54.98742187 -97.17578125 55.49609375 C-98.55464662 56.14331627 -99.93355512 56.79044689 -101.3125 57.4375 C-102.00279297 57.76298828 -102.69308594 58.08847656 -103.40429688 58.42382812 C-110.28928816 61.65012839 -116.57872259 63.52349767 -124.140625 61.3984375 C-126.88191201 60.25815425 -128.89374716 59.10625284 -131 57 C-130.66764252 53.23328194 -129.25553808 49.84290039 -127.8984375 46.3359375 C-126.8344831 43.56965607 -125.82248631 40.78641614 -124.8125 38 C-124.46832031 37.05125 -124.12414062 36.1025 -123.76953125 35.125 C-123.38861328 34.073125 -123.38861328 34.073125 -123 33 C-113.44480987 32.1691139 -106.25990445 36.40174363 -99 42.25 C-97 44 -97 44 -95.5625 45.5625 C-92.29152821 48.98923235 -89.51580795 49.37456089 -85 49.5 C-60.08356887 48.42893169 -35.77333516 36.99908333 -17 21 C-16.00806641 20.16082031 -16.00806641 20.16082031 -14.99609375 19.3046875 C-10.36043535 15.0239635 -6.89488659 9.82413016 -3.37426758 4.62207031 C-2.29585384 3.04859468 -1.15295224 1.51970487 0 0 Z " fill="#FCFCFC" transform="translate(644,487)"/>
<path d="M0 0 C4.09575216 3.88571359 5.93959648 5.78923114 6.09765625 11.57421875 C6.09103244 12.94534658 6.07914198 14.31645717 6.0625 15.6875 C6.05798828 16.38939453 6.05347656 17.09128906 6.04882812 17.81445312 C6.03706927 19.54300538 6.01913454 21.27151365 6 23 C6.57363281 22.88398437 7.14726563 22.76796875 7.73828125 22.6484375 C27.74941574 20.52282382 51.20880385 42.91711877 66.75878906 53.95898438 C71.91513483 57.6157705 77.14025823 60.98355275 82.625 64.125 C88.15078295 67.31608868 93.60962037 70.58422438 99 74 C98.67 74.66 98.34 75.32 98 76 C95.63208008 76.51635742 95.63208008 76.51635742 92.45703125 76.91796875 C85.16744315 77.93916736 77.99516086 79.34176241 70.79907227 80.86694336 C68.70165578 81.30951303 66.60197495 81.73990923 64.50195312 82.16992188 C54.78899897 84.19655526 45.41646219 86.88308205 36 90 C35.12778809 90.28609131 34.25557617 90.57218262 33.35693359 90.86694336 C31.9256816 91.34051244 30.49586632 91.81845709 29.06787109 92.30175781 C27.59684203 92.79846893 26.12286712 93.28649246 24.64697266 93.76855469 C2.46570153 101.01371525 -19.14904424 110.12284247 -39.85107422 120.89990234 C-42.45008533 122.23041178 -45.06957804 123.51582372 -47.69140625 124.80078125 C-68.00292848 134.77690793 -86.61150056 145.42142918 -104 160 C-104.66 159.67 -105.32 159.34 -106 159 C-105.45730469 158.29875 -104.91460938 157.5975 -104.35546875 156.875 C-100.20021255 151.36460619 -97.04079857 146.56053327 -95 140 C-90.89487411 127.83953274 -85.26468323 119.75780087 -76 111 C-76.55429687 111.433125 -77.10859375 111.86625 -77.6796875 112.3125 C-78.40414062 112.869375 -79.12859375 113.42625 -79.875 114 C-80.59429688 114.556875 -81.31359375 115.11375 -82.0546875 115.6875 C-84 117 -84 117 -86 117 C-84.64891034 114.03674056 -83.11293352 111.79214835 -80.9375 109.375 C-80.30972656 108.67117188 -79.68195312 107.96734375 -79.03515625 107.2421875 C-77.69345206 105.76399517 -76.34718964 104.28992558 -74.99609375 102.8203125 C-64.57345232 91.41874895 -55.02937944 79.38661659 -46.20166016 66.71777344 C-44.15738103 63.79547601 -42.07638539 60.89952244 -40 58 C-39.16139569 56.82426343 -38.32285386 55.64848229 -37.484375 54.47265625 C-35.87872469 52.22386909 -34.26407884 49.98205701 -32.640625 47.74609375 C-26.89159663 39.8018959 -21.45408612 31.67844878 -16.05639648 23.49169922 C-12.43795368 18.04233932 -8.69129029 12.89972953 -4.48828125 7.88671875 C-2.52313778 5.39547388 -1.22777725 2.91597097 0 0 Z " fill="#FCFCFC" transform="translate(747,583)"/>
<path d="M0 0 C3.84423828 0.7890625 3.84423828 0.7890625 5.24609375 2.6875 C5.63925781 3.450625 6.03242188 4.21375 6.4375 5 C9.33222491 10.14863286 12.74100289 14.67764232 16.375 19.3125 C21.80767434 26.28477692 26.52033824 33.37246781 31 41 C40.66631413 57.11052355 52.43371131 71.78661746 64.47265625 86.1640625 C67.71209552 90.05801764 70.85733731 94.02775243 74 98 C70.50458471 98 70.2071323 97.61047271 67.76953125 95.31640625 C67.13909912 94.72674072 66.50866699 94.1370752 65.85913086 93.52954102 C65.18374268 92.88041748 64.50835449 92.23129395 63.8125 91.5625 C63.11068604 90.89597412 62.40887207 90.22944824 61.68579102 89.54272461 C51.82307298 80.07736928 42.4449623 70.10049789 33.56274414 59.71069336 C31.85769108 57.76668789 31.85769108 57.76668789 29 55.5 C25.99241015 52.99367512 23.60801342 50.37097408 21.078125 47.40234375 C18.46413725 44.38053461 15.76770522 41.44006365 13.0625 38.5 C12.56532471 37.95915771 12.06814941 37.41831543 11.5559082 36.86108398 C10.37136503 35.57335688 9.18579381 34.28657556 8 33 C7.41863281 33.76699219 6.83726562 34.53398438 6.23828125 35.32421875 C1.01879757 41.56391564 -6.61464561 44.91512678 -13.72265625 48.62084961 C-20.0819777 51.96929369 -26.20171792 55.68142027 -32.34228516 59.41186523 C-38.98253707 63.43009186 -45.71751878 67.24576868 -52.52856445 70.96630859 C-55.97483667 72.68539169 -55.97483667 72.68539169 -59 75 C-57.9471582 75.20898926 -56.89431641 75.41797852 -55.80957031 75.63330078 C-43.47109223 78.17578256 -31.65447615 81.78044119 -19.75 85.875 C-18.79388824 86.201586 -17.83777649 86.528172 -16.85269165 86.86465454 C0.39679283 92.7859213 16.75167995 99.73876466 33 108 C35.09111839 109.04041974 37.18226348 110.08078582 39.2734375 111.12109375 C51.6558026 117.36111298 63.48398642 124.28077816 75 132 C75.73976074 132.495 76.47952148 132.99 77.24169922 133.5 C87.41504279 140.36415802 96.85218304 147.82350433 106 156 C101.86152144 156 99.52192379 153.85009504 96.25 151.5625 C89.26234398 146.78946917 82.11916539 142.38656137 74.83105469 138.09130859 C72.49810577 136.70087104 70.19531402 135.26268763 67.88720703 133.83154297 C35.40209127 113.89401694 -3.65791905 95.61458133 -40.8984375 86.75390625 C-44.04219413 85.98974374 -47.05620648 85.02163632 -50.125 84 C-63.31475554 79.8639532 -77.33591142 77.92666184 -91 76 C-91 75.34 -91 74.68 -91 74 C-89.11328125 72.73046875 -89.11328125 72.73046875 -86.3125 71.1875 C-72.95633624 63.60019571 -59.98292567 55.40085895 -47.25 46.8125 C-40.84418247 42.49930111 -34.39891846 38.30519329 -27.75 34.375 C-27.09547852 33.98546143 -26.44095703 33.59592285 -25.76660156 33.19458008 C-12.33485286 25.38690332 -12.33485286 25.38690332 -4.4375 25.75 C-3.40496094 25.78609375 -2.37242187 25.8221875 -1.30859375 25.859375 C-0.16583984 25.92898438 -0.16583984 25.92898438 1 26 C0.75443359 24.57494141 0.75443359 24.57494141 0.50390625 23.12109375 C-0.16558293 18.43466951 -0.10920922 13.78731694 -0.0625 9.0625 C-0.05798828 8.18787109 -0.05347656 7.31324219 -0.04882812 6.41210938 C-0.03714834 4.27470953 -0.01921689 2.13734537 0 0 Z " fill="#F7F8F7" transform="translate(298,582)"/>
<path d="M0 0 C1.57938132 1.57938132 1.12597855 3.16510319 1.12698364 5.35774231 C1.12980347 6.2999614 1.13262329 7.24218048 1.13552856 8.21295166 C1.13350433 9.25618591 1.1314801 10.29942017 1.12939453 11.37426758 C1.13114685 12.46750839 1.13289917 13.56074921 1.13470459 14.68711853 C1.13913927 18.33960517 1.13617247 21.99204402 1.1328125 25.64453125 C1.13348676 28.20244862 1.13445781 30.76036593 1.13571167 33.31828308 C1.13719215 38.71650858 1.1351252 44.11471626 1.13037109 49.51293945 C1.12560736 54.98332621 1.12548371 60.45368563 1.13037109 65.92407227 C1.17505186 117.53897955 1.17505186 117.53897955 0.6171875 140.38671875 C0.60204227 141.11457895 0.58689705 141.84243916 0.57129288 142.59235573 C0.52752873 144.59266036 0.46901646 146.59262637 0.40966797 148.5925293 C0.37904266 149.67463181 0.34841736 150.75673431 0.31686401 151.87162781 C-0.04756518 155.4696071 -0.91685696 158.55454401 -2 162 C-4.97 162 -7.94 162 -11 162 C-11.88377414 158.20130201 -12.12977262 154.67900891 -12.14044189 150.78248596 C-12.14615204 149.53057465 -12.15186218 148.27866333 -12.15774536 146.98881531 C-12.15899054 145.60916148 -12.16011567 144.22950753 -12.16113281 142.84985352 C-12.16576419 141.39088822 -12.17078929 139.93192412 -12.17617798 138.47296143 C-12.18926999 134.5163697 -12.19574025 130.55979492 -12.20018864 126.60318494 C-12.20312351 124.13016295 -12.20722902 121.65714556 -12.21169281 119.1841259 C-12.22535705 111.44312708 -12.23502991 103.70213881 -12.2388947 95.96112877 C-12.24337806 87.03104231 -12.26094327 78.10110871 -12.2898953 69.17106873 C-12.31151328 62.26307251 -12.32159898 55.3551193 -12.32293582 48.44708961 C-12.32398343 44.32324873 -12.32988223 40.19955176 -12.34775543 36.07574654 C-12.36423901 32.19741927 -12.36639034 28.31934409 -12.35761642 24.44099426 C-12.3568463 23.0196153 -12.36118561 21.59822275 -12.37107468 20.17687798 C-12.38380522 18.23279253 -12.37612164 16.28860566 -12.36749268 14.34449768 C-12.36895924 13.25774529 -12.3704258 12.17099291 -12.3719368 11.05130863 C-11.83130657 6.61606668 -10.22969101 3.27068071 -7.125 0.0625 C-4.34545965 -1.32727017 -2.90602966 -0.9424961 0 0 Z " fill="#F9FAFA" transform="translate(598,709)"/>
<path d="M0 0 C4.18208853 0.57401215 5.50103993 2.29050392 8.1875 5.4375 C8.5175 5.7675 8.8475 6.0975 9.1875 6.4375 C10.20476091 14.05904598 10.33345725 21.74394728 10.31689453 29.42138672 C10.31864685 30.44784302 10.32039917 31.47429932 10.32220459 32.53186035 C10.3265697 35.8936538 10.32370005 39.2553936 10.3203125 42.6171875 C10.32098799 44.99439504 10.32196006 47.37160251 10.32321167 49.74880981 C10.32468224 54.72984475 10.32255816 59.7108617 10.31787109 64.69189453 C10.31222949 70.98510564 10.3155275 77.27827403 10.32129288 83.57148361 C10.3561406 127.80206069 10.3561406 127.80206069 9.8046875 146.8203125 C9.77432404 148.01929169 9.74396057 149.21827087 9.712677 150.45358276 C9.67455902 151.50933502 9.63644104 152.56508728 9.59716797 153.65283203 C9.56654266 154.54197296 9.53591736 155.43111389 9.50436401 156.34719849 C9.1875 158.4375 9.1875 158.4375 7.1875 160.4375 C4.49910615 160.70741906 1.89608064 160.52487357 -0.8125 160.4375 C-2.79772889 152.98635347 -3.11169396 146.04285765 -3.11547852 138.35302734 C-3.12813751 136.42672989 -3.12813751 136.42672989 -3.14105225 134.46151733 C-3.15922713 131.68372444 -3.17133191 128.90599743 -3.17859077 126.12815475 C-3.19016841 121.72099437 -3.21566784 117.31397831 -3.24290466 112.90689087 C-3.2844518 105.92334742 -3.3169033 98.93979669 -3.34537882 91.9561888 C-3.3963516 79.48180722 -3.45910585 67.00749005 -3.53071922 54.5332104 C-3.55537538 50.16777498 -3.57492532 45.80235723 -3.59010136 41.43687892 C-3.59792955 39.36514419 -3.60786312 37.29343148 -3.61865234 35.22171021 C-3.63158864 32.71703646 -3.64131119 30.21234266 -3.64683533 27.7076416 C-3.67608373 22.89497669 -3.73781358 18.11120057 -4.11671257 13.31236649 C-4.19747454 12.28261009 -4.19747454 12.28261009 -4.27986807 11.23205054 C-4.44009244 9.29596637 -4.61717353 7.36129902 -4.79516506 5.42676735 C-4.80088559 4.44030912 -4.80660612 3.4538509 -4.8125 2.4375 C-2.8125 0.4375 -2.8125 0.4375 0 0 Z " fill="#F6F7F7" transform="translate(455.8125,707.5625)"/>
<path d="M0 0 C1.40885258 0.00502467 2.81770689 0.00958587 4.2265625 0.01367188 C7.65108638 0.0253997 11.07552047 0.04181309 14.5 0.0625 C14.5 0.3925 14.5 0.7225 14.5 1.0625 C13.77635254 1.18254395 13.05270508 1.30258789 12.30712891 1.42626953 C-13.01349686 5.62132714 -13.01349686 5.62132714 -36.6340332 15.26635742 C-39.6711222 16.56217676 -42.2438919 16.33384234 -45.5 16.0625 C-45.5 13.4225 -45.5 10.7825 -45.5 8.0625 C-48.8 8.0625 -52.1 8.0625 -55.5 8.0625 C-55.5 7.7325 -55.5 7.4025 -55.5 7.0625 C-54.78199219 7.04832031 -54.06398438 7.03414063 -53.32421875 7.01953125 C-45.26784191 6.64831588 -38.03427413 5.0960115 -30.30151367 2.87817383 C-20.1725953 0.00048281 -10.45788419 -0.06508547 0 0 Z " fill="#202121" transform="translate(505.5,383.9375)"/>
<path d="M0 0 C-0.33 0.66 -0.66 1.32 -1 2 C-3.29935265 2.38171072 -5.61742594 2.65143337 -7.9375 2.875 C-19.97321016 4.19281848 -31.90911031 6.33756511 -43.02734375 11.2578125 C-45.72168416 12.27152473 -48.15173992 12.13247721 -51 12 C-52.12535156 12.47179687 -52.12535156 12.47179687 -53.2734375 12.953125 C-56.3643095 14.13987815 -59.01568776 14.40762776 -62.3125 14.625 C-63.38113281 14.69976562 -64.44976562 14.77453125 -65.55078125 14.8515625 C-66.76314453 14.92503906 -66.76314453 14.92503906 -68 15 C-68 14.34 -68 13.68 -68 13 C-70.97 12.505 -70.97 12.505 -74 12 C-74 11.34 -74 10.68 -74 10 C-65.50341928 6.68074129 -57.4616517 6.27775443 -48.41796875 5.828125 C-42.16325156 5.45037205 -37.61945426 4.718411 -32 2 C-21.42399115 -0.29433139 -10.75834049 -0.23702586 0 0 Z " fill="#0B090B" transform="translate(521,372)"/>
<path d="M0 0 C-4.96093728 2.27376292 -9.67812773 3.78623966 -15 5 C-15 5.99 -15 6.98 -15 8 C-17.5 10.6875 -17.5 10.6875 -20 13 C-18.68 13.33 -17.36 13.66 -16 14 C-17.01320313 14.18175781 -17.01320313 14.18175781 -18.046875 14.3671875 C-18.93890625 14.53476562 -19.8309375 14.70234375 -20.75 14.875 C-22.07257813 15.11863281 -22.07257813 15.11863281 -23.421875 15.3671875 C-25.94679763 15.86647399 -25.94679763 15.86647399 -27.79882812 17.00219727 C-30.52921429 18.23989561 -32.80771527 18.40095117 -35.796875 18.59765625 C-37.48296875 18.71657227 -37.48296875 18.71657227 -39.203125 18.83789062 C-40.37359375 18.91201172 -41.5440625 18.98613281 -42.75 19.0625 C-45.05741052 19.21830171 -47.36470626 19.37581412 -49.671875 19.53515625 C-50.75919922 19.61008301 -51.84652344 19.68500977 -52.96679688 19.76220703 C-56.66774961 20.05234933 -60.32371514 20.48839878 -64 21 C-57.41766725 14.41766725 -44.76947942 13.95223988 -35.90625 12.61328125 C-31.89671976 12.01441207 -31.89671976 12.01441207 -28 11 C-27.67 10.34 -27.34 9.68 -27 9 C-26.01 8.67 -25.02 8.34 -24 8 C-23.26910156 7.20335937 -22.53820312 6.40671875 -21.78515625 5.5859375 C-18.55443283 2.58630369 -15.61693846 1.60307901 -11.4375 0.625 C-10.77814453 0.44839844 -10.11878906 0.27179688 -9.43945312 0.08984375 C-6.00637145 -0.77273958 -3.3542975 -1.31440666 0 0 Z " fill="#ADA9A8" transform="translate(512,360)"/>
<path d="M0 0 C18.6676274 9.5472689 35.1792945 22.34826219 51 36 C46.86152144 36 44.52192379 33.85009504 41.25 31.5625 C36.08392475 28.03372921 30.88010029 24.63140081 25.5 21.4375 C24.89091797 21.07591797 24.28183594 20.71433594 23.65429688 20.34179688 C22.41269463 19.6067579 21.17050323 18.87271324 19.92773438 18.13964844 C16.52628442 16.12876085 13.13868135 14.09480319 9.75 12.0625 C9.11771484 11.68472412 8.48542969 11.30694824 7.83398438 10.91772461 C5.18181608 9.3296845 2.5727982 7.7151988 0 6 C-0.1875 2.875 -0.1875 2.875 0 0 Z " fill="#EAEAE9" transform="translate(353,702)"/>
<path d="M0 0 C-0.33 0.66 -0.66 1.32 -1 2 C-3.29935265 2.38171072 -5.61742594 2.65143337 -7.9375 2.875 C-19.91662215 4.18662252 -32.18989563 6.16240199 -43.15234375 11.36328125 C-45 12 -45 12 -48 11 C-47.34 11 -46.68 11 -46 11 C-45.67 10.01 -45.34 9.02 -45 8 C-48.96 7.67 -52.92 7.34 -57 7 C-57 6.67 -57 6.34 -57 6 C-55.78183594 5.96261719 -54.56367188 5.92523438 -53.30859375 5.88671875 C-51.6848671 5.82101883 -50.06117051 5.75457291 -48.4375 5.6875 C-47.63763672 5.66494141 -46.83777344 5.64238281 -46.01367188 5.61914062 C-40.68602717 5.37994025 -36.90087971 4.24695304 -32 2 C-21.42399115 -0.29433139 -10.75834049 -0.23702586 0 0 Z " fill="#555759" transform="translate(521,372)"/>
<path d="M0 0 C0.66 0.33 1.32 0.66 2 1 C2 1.33 2 1.66 2 2 C4.64 2.33 7.28 2.66 10 3 C10 3.33 10 3.66 10 4 C9.22398437 4.09796875 8.44796875 4.1959375 7.6484375 4.296875 C1.5845289 5.13627046 -4.14635897 6.25379069 -10 8.0625 C-15.76720864 9.80936052 -21.0796575 10.42955078 -27.078125 10.71484375 C-31.10280524 11.10762672 -34.27381569 12.48192491 -38 14 C-38.99 13.67 -39.98 13.34 -41 13 C-33.37013413 8.73007506 -25.79910937 6.99540933 -17.29833984 5.46118164 C-11.76357491 4.43659435 -6.78529235 3.0805047 -1.6796875 0.63671875 C-1.12539063 0.42660156 -0.57109375 0.21648437 0 0 Z " fill="#DADAD9" transform="translate(480,381)"/>
<path d="M0 0 C-4.96093728 2.27376292 -9.67812773 3.78623966 -15 5 C-15 5.99 -15 6.98 -15 8 C-17.5 10.6875 -17.5 10.6875 -20 13 C-18.68 13.33 -17.36 13.66 -16 14 C-21.08086796 14.84681133 -25.84828377 15.09038099 -31 15 C-30.34 14.67 -29.68 14.34 -29 14 C-29 13.34 -29 12.68 -29 12 C-27.35648543 10.63823078 -25.68477344 9.31037934 -24 8 C-23.27296875 7.17886719 -22.5459375 6.35773438 -21.796875 5.51171875 C-18.55224378 2.5978949 -15.57928103 1.59426636 -11.4375 0.625 C-10.77814453 0.44839844 -10.11878906 0.27179688 -9.43945312 0.08984375 C-6.00637145 -0.77273958 -3.3542975 -1.31440666 0 0 Z " fill="#D4CECA" transform="translate(512,360)"/>
<path d="M0 0 C0.9178125 0.00451172 1.835625 0.00902344 2.78125 0.01367188 C5.02090391 0.02533674 7.26041545 0.04170386 9.5 0.0625 C1.31613438 4.31271515 -8.28193618 7.05001115 -17.44921875 5.32421875 C-19.74671258 5.03101478 -21.28410815 5.46188866 -23.5 6.0625 C-26.25 5.625 -26.25 5.625 -28.5 5.0625 C-28.5 4.4025 -28.5 3.7425 -28.5 3.0625 C-27.000823 2.74607535 -25.50059887 2.43461151 -24 2.125 C-23.1646875 1.95097656 -22.329375 1.77695312 -21.46875 1.59765625 C-14.23416862 0.29352776 -7.3358072 -0.06930632 0 0 Z " fill="#232629" transform="translate(510.5,397.9375)"/>
<path d="M0 0 C0.33 1.32 0.66 2.64 1 4 C2.65 4 4.3 4 6 4 C3.43606226 8.22295628 0.34290456 9.86664337 -4 12 C-5.32 12 -6.64 12 -8 12 C-8.33 10.35 -8.66 8.7 -9 7 C-11.97 9.475 -11.97 9.475 -15 12 C-15.66 11.67 -16.32 11.34 -17 11 C-15.21079529 9.3514184 -13.4187995 7.70606879 -11.625 6.0625 C-10.86316406 5.35963867 -10.86316406 5.35963867 -10.0859375 4.64257812 C-5.00916142 0 -5.00916142 0 0 0 Z " fill="#3A3836" transform="translate(668,628)"/>
<path d="M0 0 C-3.62714759 2.00032624 -7.02541611 2.65731237 -11.07421875 3.33984375 C-11.70972656 3.55769531 -12.34523438 3.77554687 -13 4 C-13.33 4.99 -13.66 5.98 -14 7 C-16.5625 8.6875 -16.5625 8.6875 -19 10 C-19 9.34 -19 8.68 -19 8 C-19.99 8.33 -20.98 8.66 -22 9 C-23.72795352 9.06802967 -25.45835365 9.08495645 -27.1875 9.0625 C-28.53908203 9.04896484 -28.53908203 9.04896484 -29.91796875 9.03515625 C-30.60503906 9.02355469 -31.29210937 9.01195312 -32 9 C-31.67 8.01 -31.34 7.02 -31 6 C-29.23754883 5.21630859 -29.23754883 5.21630859 -26.95703125 4.6484375 C-25.71663086 4.33132813 -25.71663086 4.33132813 -24.45117188 4.0078125 C-23.58041016 3.79898437 -22.70964844 3.59015625 -21.8125 3.375 C-20.96107422 3.1584375 -20.10964844 2.941875 -19.23242188 2.71875 C-12.78429515 1.10297811 -6.68242454 -0.15910535 0 0 Z " fill="#BCB6AF" transform="translate(516,413)"/>
<path d="M0 0 C4.49955264 4.29307221 8.38992629 8.99310717 12.3125 13.8125 C13.28026367 14.99489258 13.28026367 14.99489258 14.26757812 16.20117188 C15.84747483 18.13215673 17.4248674 20.06512867 19 22 C15.33220733 22 14.88009248 21.30433189 12.27734375 18.859375 C11.57416016 18.20066406 10.87097656 17.54195312 10.14648438 16.86328125 C9.41751953 16.16589844 8.68855469 15.46851563 7.9375 14.75 C6.83825195 13.72712891 6.83825195 13.72712891 5.71679688 12.68359375 C-0.21602585 7.07220035 -0.21602585 7.07220035 -2 3 C-1.34 2.01 -0.68 1.02 0 0 Z " fill="#E6E4E5" transform="translate(353,658)"/>
<path d="M0 0 C5.83152493 3.11291367 11.58700334 6.19627262 17 10 C15.68 11.32 14.36 12.64 13 14 C10.81517806 12.81755516 8.65618249 11.60774467 6.5 10.375 C5.87996094 10.04371094 5.25992187 9.71242188 4.62109375 9.37109375 C2.84375 8.3359375 2.84375 8.3359375 0 6 C-0.40625 2.7265625 -0.40625 2.7265625 0 0 Z " fill="#EDEEED" transform="translate(353,702)"/>
<path d="M0 0 C0 3 0 3 -1.72265625 4.98046875 C-2.88087891 6.07294922 -2.88087891 6.07294922 -4.0625 7.1875 C-7.03156828 10.05450655 -9.88244225 12.92335828 -12.5625 16.0625 C-16.16130067 20.26110078 -20.04562553 24.13806545 -24 28 C-24.66 27.67 -25.32 27.34 -26 27 C-25.31035156 26.24976563 -24.62070312 25.49953125 -23.91015625 24.7265625 C-22.9609093 23.69273423 -22.0116928 22.65887799 -21.0625 21.625 C-20.56468018 21.08351318 -20.06686035 20.54202637 -19.55395508 19.98413086 C-16.39485551 16.54182601 -13.28179388 13.06338199 -10.1875 9.5625 C-7.00389855 6.00671492 -3.7806063 2.90815869 0 0 Z " fill="#535451" transform="translate(726,641)"/>
<path d="M0 0 C-1.51339948 4.23751854 -4.18991209 5.80187236 -8 8 C-11.375 9.25 -11.375 9.25 -14 10 C-13.67 8.68 -13.34 7.36 -13 6 C-12.34 6 -11.68 6 -11 6 C-11 5.34 -11 4.68 -11 4 C-12.98 3.34 -14.96 2.68 -17 2 C-17 1.67 -17 1.34 -17 1 C-14.72926348 0.83201949 -12.45840707 0.66565887 -10.1875 0.5 C-8.29064453 0.36078125 -8.29064453 0.36078125 -6.35546875 0.21875 C-4.24021483 0.08085219 -2.11974408 0 0 0 Z " fill="#272D35" transform="translate(497,421)"/>
<path d="M0 0 C-0.99 0.33 -1.98 0.66 -3 1 C-3 1.99 -3 2.98 -3 4 C-3.97839844 4.25394531 -4.95679688 4.50789063 -5.96484375 4.76953125 C-7.28922744 5.11655865 -8.61343465 5.46425998 -9.9375 5.8125 C-10.96387573 6.08163208 -10.96387573 6.08163208 -12.01098633 6.35620117 C-15.80041534 7.36453748 -19.4978959 8.47532805 -23.1875 9.8125 C-26.8609243 10.95668134 -27.61279225 11.10403446 -31 10 C-3.33676093 -1.66838046 -3.33676093 -1.66838046 0 0 Z " fill="#E5EAEB" transform="translate(454,405)"/>
<path d="M0 0 C-4.81327064 2.19736268 -9.55132773 3.802556 -14.66796875 5.15625 C-17.19804359 6.07165396 -18.93676524 7.29249537 -21 9 C-21.99 8.34 -22.98 7.68 -24 7 C-20.13522349 3.46287314 -16.44289438 1.92285299 -11.4375 0.6875 C-10.77814453 0.50638672 -10.11878906 0.32527344 -9.43945312 0.13867188 C-5.99996761 -0.74971785 -3.36754752 -1.3281676 0 0 Z " fill="#D2D4D3" transform="translate(512,360)"/>
<path d="M0 0 C-0.33 0.66 -0.66 1.32 -1 2 C-3.86743164 2.41064453 -3.86743164 2.41064453 -7.66015625 2.6328125 C-8.32462265 2.67437469 -8.98908905 2.71593689 -9.6736908 2.75875854 C-11.80286112 2.88985319 -13.932537 3.00756083 -16.0625 3.125 C-17.50330813 3.21136116 -18.94406457 3.29858945 -20.38476562 3.38671875 C-23.92263171 3.60122308 -27.4610705 3.80372589 -31 4 C-22.3302236 -1.77985093 -10.01222286 -0.21127786 0 0 Z " fill="#333635" transform="translate(521,372)"/>
<path d="M0 0 C2.25245881 2.68841859 3.88213958 4.64641875 5 8 C4.67 8.66 4.34 9.32 4 10 C0.0507432 9.44894091 -3.34920174 8.61064629 -7 7 C-4.66666667 4.66666667 -2.33333333 2.33333333 0 0 Z " fill="#61615F" transform="translate(604,684)"/>
<path d="M0 0 C0.91458984 -0.01224609 1.82917969 -0.02449219 2.77148438 -0.03710938 C4.08149414 -0.04000977 4.08149414 -0.04000977 5.41796875 -0.04296875 C6.61135864 -0.04913208 6.61135864 -0.04913208 7.82885742 -0.05541992 C9.8125 0.1875 9.8125 0.1875 11.8125 2.1875 C8.62560715 2.38642707 5.43798809 2.56954784 2.25 2.75 C0.90711914 2.83411133 0.90711914 2.83411133 -0.46289062 2.91992188 C-5.55168468 3.19952594 -10.17276952 3.11615379 -15.1875 2.1875 C-15.1875 1.8575 -15.1875 1.5275 -15.1875 1.1875 C-10.16892185 -0.12764102 -5.14908481 0.00367529 0 0 Z " fill="#313633" transform="translate(526.1875,436.8125)"/>
<path d="M0 0 C-0.66 0.66 -1.32 1.32 -2 2 C-1.67 2.66 -1.34 3.32 -1 4 C-10.41002278 7.25968109 -10.41002278 7.25968109 -15 8 C-14.01 7.67 -13.02 7.34 -12 7 C-11.773125 6.030625 -11.54625 5.06125 -11.3125 4.0625 C-10 1 -10 1 -8.16796875 0.125 C-2.62588968 -1.31294484 -2.62588968 -1.31294484 0 0 Z " fill="#3B3538" transform="translate(491,365)"/>
<path d="M0 0 C0 0.66 0 1.32 0 2 C-0.99 2.495 -0.99 2.495 -2 3 C-1.67 4.32 -1.34 5.64 -1 7 C-4.63 7 -8.26 7 -12 7 C-5.36842105 0 -5.36842105 0 0 0 Z " fill="#1F1F1F" transform="translate(250,651)"/>
<path d="M0 0 C0.66 0 1.32 0 2 0 C1.58169634 7.22124213 1.04538889 14.04567778 -1 21 C-1.66 21 -2.32 21 -3 21 C-3.33 21.66 -3.66 22.32 -4 23 C-3.29885571 17.81970092 -2.41920353 12.69648064 -1.4375 7.5625 C-1.29892578 6.83095703 -1.16035156 6.09941406 -1.01757812 5.34570312 C-0.6797819 3.56353682 -0.34009012 1.78172998 0 0 Z " fill="#242324" transform="translate(640,524)"/>
<path d="M0 0 C0.66 0.33 1.32 0.66 2 1 C-1.27343155 3.82705452 -4.10845131 6.11699257 -8 8 C-8.86625 8.70125 -9.7325 9.4025 -10.625 10.125 C-13 12 -13 12 -15 12 C-13.33248852 8.05860922 -10.77289351 5.2107188 -8 2 C-6.8553125 2.3403125 -6.8553125 2.3403125 -5.6875 2.6875 C-4.800625 2.790625 -3.91375 2.89375 -3 3 C-1.1645201 1.66621425 -1.1645201 1.66621425 0 0 Z " fill="#E5E3DE" transform="translate(676,688)"/>
<path d="M0 0 C0.66 0.66 1.32 1.32 2 2 C1.01 2.33 0.02 2.66 -1 3 C-1 3.66 -1 4.32 -1 5 C-0.01 5.66 0.98 6.32 2 7 C-1.90028225 9.60018816 -5.47434569 9.15085514 -10 9 C-8.68 8.34 -7.36 7.68 -6 7 C-6 6.34 -6 5.68 -6 5 C-7.98 5 -9.96 5 -12 5 C-12 4.67 -12 4.34 -12 4 C-10.7625 3.855625 -9.525 3.71125 -8.25 3.5625 C-5.43495501 3.21311498 -2.7298503 2.79620634 0 2 C0 1.34 0 0.68 0 0 Z " fill="#A59B9C" transform="translate(484,369)"/>
<path d="M0 0 C0.83414558 2.38480081 1.11903995 3.63319086 0.328125 6.0703125 C-0.02765625 6.74835937 -0.3834375 7.42640625 -0.75 8.125 C-1.09546875 8.80820312 -1.4409375 9.49140625 -1.796875 10.1953125 C-3 12 -3 12 -6 14 C-6 12.02 -6 10.04 -6 8 C-5.34 8 -4.68 8 -4 8 C-4.0825 7.236875 -4.165 6.47375 -4.25 5.6875 C-4 3 -4 3 -2 1.1875 C-1.34 0.795625 -0.68 0.40375 0 0 Z " fill="#504C49" transform="translate(650,724)"/>
<path d="M0 0 C0.99 0.66 1.98 1.32 3 2 C2.33961404 5.73084029 1.33952078 9.18397971 0.0625 12.75 C-0.27652344 13.71421875 -0.61554687 14.6784375 -0.96484375 15.671875 C-2 18 -2 18 -4 19 C-3.24727273 13.48 -3.24727273 13.48 -1.9375 10.9375 C-0.76797397 8.52047954 -0.85272881 6.65088143 -1 4 C-1.99 4.495 -1.99 4.495 -3 5 C-1.125 1.125 -1.125 1.125 0 0 Z " fill="#332D28" transform="translate(655,705)"/>
<path d="M0 0 C-3.90724786 2.29654728 -8.13345051 3.16073072 -12.5 4.1875 C-13.25925781 4.37763672 -14.01851563 4.56777344 -14.80078125 4.76367188 C-15.53683594 4.93833984 -16.27289063 5.11300781 -17.03125 5.29296875 C-17.69705078 5.4530542 -18.36285156 5.61313965 -19.04882812 5.77807617 C-21.27212557 6.03095122 -22.87673786 5.65952499 -25 5 C-22.95990245 4.34922704 -20.91784331 3.70460176 -18.875 3.0625 C-17.16957031 2.52302734 -17.16957031 2.52302734 -15.4296875 1.97265625 C-10.20413173 0.49069339 -5.42592218 -0.12918862 0 0 Z " fill="#484B49" transform="translate(516,413)"/>
<path d="M0 0 C2.01124073 3.71480862 2.41172009 6.7013398 2.6875 10.9375 C2.77386719 12.14277344 2.86023438 13.34804688 2.94921875 14.58984375 C2.99417451 17.60879562 2.73510981 20.08719647 2 23 C0 21 0 21 -0.22705078 18.84521484 C-0.21657715 17.97590332 -0.20610352 17.1065918 -0.1953125 16.2109375 C-0.18886719 15.26992188 -0.18242187 14.32890625 -0.17578125 13.359375 C-0.15902344 12.37453125 -0.14226562 11.3896875 -0.125 10.375 C-0.11597656 9.38242187 -0.10695313 8.38984375 -0.09765625 7.3671875 C-0.07404116 4.91121866 -0.04110799 2.45572832 0 0 Z " fill="#050404" transform="translate(393,408)"/>
<path d="M0 0 C2.99381354 2.80466193 5.1993621 5.61184269 7.3125 9.125 C8.11107422 10.42824219 8.11107422 10.42824219 8.92578125 11.7578125 C9.28027344 12.49773438 9.63476562 13.23765625 10 14 C9.67 14.66 9.34 15.32 9 16 C0 6.95899772 0 6.95899772 0 0 Z " fill="#E9E7E8" transform="translate(334,581)"/>
<path d="M0 0 C2.5625 2.25 2.5625 2.25 5 5 C4.8125 7.3125 4.8125 7.3125 4 9 C3.01 9 2.02 9 1 9 C-1.1875 6 -1.1875 6 -3 3 C-2.01 2.01 -1.02 1.02 0 0 Z " fill="#EFECEE" transform="translate(348,652)"/>
<path d="M0 0 C0.12375 0.61875 0.2475 1.2375 0.375 1.875 C0.87197356 4.19120832 0.87197356 4.19120832 3 6 C0 8 0 8 -4 8 C-4.12375 7.195625 -4.2475 6.39125 -4.375 5.5625 C-4.684375 4.2940625 -4.684375 4.2940625 -5 3 C-5.66 2.67 -6.32 2.34 -7 2 C-4 0 -4 0 0 0 Z " fill="#7A7871" transform="translate(668,628)"/>
<path d="M0 0 C1.99788438 0.34578768 3.99759451 0.68143549 6 1 C6 1.33 6 1.66 6 2 C5.154375 2.03738281 4.30875 2.07476562 3.4375 2.11328125 C-4.26601993 2.51366472 -4.26601993 2.51366472 -11.625 4.625 C-15 6 -15 6 -18 5 C-16.23002526 4.18563132 -14.45898848 3.3735706 -12.6875 2.5625 C-11.70136719 2.11003906 -10.71523438 1.65757812 -9.69921875 1.19140625 C-5.8347354 -0.51433532 -4.00742656 -1.14497902 0 0 Z " fill="#C7C7C7" transform="translate(457,389)"/>
<path d="M0 0 C0 0.66 0 1.32 0 2 C-3.70416126 4.37590142 -6.92984573 4.20500286 -11.25 4.125 C-12.51328125 4.10695313 -13.7765625 4.08890625 -15.078125 4.0703125 C-16.04234375 4.04710937 -17.0065625 4.02390625 -18 4 C-12.64766505 0.4317767 -6.36973531 -0.32665309 0 0 Z " fill="#E3DDD7" transform="translate(478,374)"/>
<path d="M0 0 C6.15234375 0.5859375 6.15234375 0.5859375 8 1 C8.33 1.66 8.66 2.32 9 3 C8.32453125 3.19335938 7.6490625 3.38671875 6.953125 3.5859375 C5.61507813 3.97652344 5.61507813 3.97652344 4.25 4.375 C3.36828125 4.63023437 2.4865625 4.88546875 1.578125 5.1484375 C-0.76080572 5.9209934 -2.83442562 6.83625676 -5 8 C-5.33 6.68 -5.66 5.36 -6 4 C-3.69 3.34 -1.38 2.68 1 2 C0.67 1.34 0.34 0.68 0 0 Z " fill="#161515" transform="translate(488,402)"/>
<path d="M0 0 C5.59363406 4.06133537 10.85963514 8.3791401 16 13 C11.91243135 13 9.55530528 10.9915057 6.3125 8.75 C5.70599609 8.35425781 5.09949219 7.95851563 4.47460938 7.55078125 C2.73828125 6.359375 2.73828125 6.359375 0 4 C0 2.68 0 1.36 0 0 Z " fill="#DBDCDB" transform="translate(388,725)"/>
<path d="M0 0 C3.00213515 0.08829809 5.99745775 0.06005084 9 0 C9 0.33 9 0.66 9 1 C2.26718787 2.700773 -3.13252891 3.10765663 -10 2 C-7.83969117 -2.32061766 -3.97412666 -0.66235444 0 0 Z " fill="#48494C" transform="translate(495,375)"/>
<path d="M0 0 C3.21422633 0.28751107 4.09344717 1.09917158 6.359375 3.50390625 C7.14828125 4.51324219 7.9371875 5.52257812 8.75 6.5625 C9.54921875 7.57441406 10.3484375 8.58632813 11.171875 9.62890625 C11.77515625 10.41136719 12.3784375 11.19382812 13 12 C8.64362179 12 6.94389947 9.72102943 3.80859375 6.890625 C1.76632377 4.75572506 0.69766618 2.87787297 0 0 Z " fill="#B9B6B7" transform="translate(359,668)"/>
<path d="M0 0 C1.32 0.66 2.64 1.32 4 2 C-3.96600635 3.89968355 -11.92614962 5.62469483 -20 7 C-20 6.34 -20 5.68 -20 5 C-16.18384532 2.52954197 -12.15255752 2.56168088 -7.75 2.375 C-7.00492187 2.33632813 -6.25984375 2.29765625 -5.4921875 2.2578125 C-3.6618476 2.16394892 -1.83095857 2.08090282 0 2 C0 1.34 0 0.68 0 0 Z " fill="#323138" transform="translate(469,383)"/>
<path d="M0 0 C0.33 0.66 0.66 1.32 1 2 C6.1693489 1.59443869 6.1693489 1.59443869 11 0 C10.375 1.875 10.375 1.875 9 4 C5.875 5.25 5.875 5.25 3 6 C3 5.34 3 4.68 3 4 C1.68 4.33 0.36 4.66 -1 5 C-0.67 3.35 -0.34 1.7 0 0 Z " fill="#414040" transform="translate(454,866)"/>
<path d="M0 0 C0 3 0 3 -1.96875 5.26171875 C-2.8040625 6.06222656 -3.639375 6.86273437 -4.5 7.6875 C-5.3353125 8.49574219 -6.170625 9.30398438 -7.03125 10.13671875 C-7.6809375 10.75160156 -8.330625 11.36648438 -9 12 C-9.66 11.34 -10.32 10.68 -11 10 C-9.54474941 8.51780033 -8.085701 7.03932861 -6.625 5.5625 C-5.81289063 4.73878906 -5.00078125 3.91507813 -4.1640625 3.06640625 C-2 1 -2 1 0 0 Z " fill="#474747" transform="translate(726,641)"/>
<path d="M0 0 C0.66 0.33 1.32 0.66 2 1 C-1.63 4.96 -5.26 8.92 -9 13 C-9.33 12.01 -9.66 11.02 -10 10 C-6.7 6.7 -3.4 3.4 0 0 Z " fill="#282828" transform="translate(552,737)"/>
<path d="M0 0 C0.66 0.33 1.32 0.66 2 1 C0.75965588 2.32162881 -0.49268626 3.63200453 -1.75 4.9375 C-2.44609375 5.66839844 -3.1421875 6.39929688 -3.859375 7.15234375 C-6.94542192 9.81603023 -8.99908764 10 -13 10 C-10.61848786 7.36780237 -8.03696359 5.80771642 -5 4 C-3.31522656 2.68962066 -1.64351457 1.36176922 0 0 Z " fill="#79756B" transform="translate(670,693)"/>
<path d="M0 0 C1.16161779 2.86578759 0.9946154 4.01630163 0.00390625 7.015625 C-0.70958984 8.61664063 -0.70958984 8.61664063 -1.4375 10.25 C-1.91058594 11.32765625 -2.38367188 12.4053125 -2.87109375 13.515625 C-3.24363281 14.33546875 -3.61617188 15.1553125 -4 16 C-4.66 16 -5.32 16 -6 16 C-4.25192871 10.53262809 -2.34205919 5.24175152 0 0 Z " fill="#282C2B" transform="translate(304,425)"/>
<path d="M0 0 C1.8871875 0.0309375 1.8871875 0.0309375 3.8125 0.0625 C3.8125 0.7225 3.8125 1.3825 3.8125 2.0625 C1.28774538 3.32487731 -0.49950466 3.16106404 -3.3125 3.125 C-4.22257812 3.11597656 -5.13265625 3.10695313 -6.0703125 3.09765625 C-6.76898438 3.08605469 -7.46765625 3.07445312 -8.1875 3.0625 C-6.45706736 -0.39836529 -3.47359009 -0.0569441 0 0 Z " fill="#F4F3F4" transform="translate(464.1875,386.9375)"/>
<path d="M0 0 C0.66 0.33 1.32 0.66 2 1 C1.3503125 1.5878125 1.3503125 1.5878125 0.6875 2.1875 C-1.1287076 4.00599296 -1.1287076 4.00599296 -2.5 6.5625 C-4 9 -4 9 -7 11 C-7.33 10.01 -7.66 9.02 -8 8 C-5.36 5.36 -2.72 2.72 0 0 Z " fill="#2F2C2D" transform="translate(641,648)"/>
<path d="M0 0 C0.8125 1.6875 0.8125 1.6875 1 4 C-1.75432581 7.383886 -3.73936041 9.1697683 -8 10 C-7.04367001 8.70684939 -6.08486149 7.41553147 -5.125 6.125 C-4.59132813 5.40570312 -4.05765625 4.68640625 -3.5078125 3.9453125 C-2 2 -2 2 0 0 Z " fill="#202020" transform="translate(710,594)"/>
<path d="M0 0 C1.09570312 0.00902344 2.19140625 0.01804687 3.3203125 0.02734375 C4.16335938 0.03894531 5.00640625 0.05054688 5.875 0.0625 C2.75589144 1.85525866 0.19817572 2.40540718 -3.375 2.6875 C-4.26703125 2.76226562 -5.1590625 2.83703125 -6.078125 2.9140625 C-6.75359375 2.96304687 -7.4290625 3.01203125 -8.125 3.0625 C-8.125 2.4025 -8.125 1.7425 -8.125 1.0625 C-5.36047967 -0.31976016 -3.0788637 -0.03275387 0 0 Z " fill="#171A17" transform="translate(514.125,397.9375)"/>
<path d="M0 0 C2.25245881 2.68841859 3.88213958 4.64641875 5 8 C4.67 8.66 4.34 9.32 4 10 C1.03 9.505 1.03 9.505 -2 9 C-2 8.67 -2 8.34 -2 8 C-0.35 8 1.3 8 3 8 C2.319375 7.4225 1.63875 6.845 0.9375 6.25 C0.298125 5.5075 -0.34125 4.765 -1 4 C-0.75 1.75 -0.75 1.75 0 0 Z " fill="#3E3D3B" transform="translate(604,684)"/>
<path d="M0 0 C0.99 0.33 1.98 0.66 3 1 C1.50902342 4.7952131 -0.75700849 6.61042731 -4 9 C-4.66 8.67 -5.32 8.34 -6 8 C-4.02 5.36 -2.04 2.72 0 0 Z " fill="#EBEAE9" transform="translate(647,734)"/>
<path d="M0 0 C-1.04874998 2.62187494 -1.64931313 3.79371361 -4.125 5.25 C-4.74375 5.4975 -5.3625 5.745 -6 6 C-6.66 4.68 -7.32 3.36 -8 2 C-5.09399739 0.74335022 -3.20395416 0 0 0 Z " fill="#3F464C" transform="translate(497,421)"/>
<path d="M0 0 C0 0.99 0 1.98 0 3 C-3.32534757 4.10844919 -5.62182575 3.84454356 -9 3 C-9 2.34 -9 1.68 -9 1 C-5.8035914 -0.06546953 -3.34252724 -0.07427838 0 0 Z " fill="#313738" transform="translate(491,400)"/>
<path d="M0 0 C2.97 0 5.94 0 9 0 C9 0.66 9 1.32 9 2 C2.565 2.495 2.565 2.495 -4 3 C-2.68 2.67 -1.36 2.34 0 2 C0 1.34 0 0.68 0 0 Z " fill="#202523" transform="translate(502,385)"/>
<path d="M0 0 C0.66 0.33 1.32 0.66 2 1 C1.34 1.66 0.68 2.32 0 3 C0.33 3.66 0.66 4.32 1 5 C-0.65 5.33 -2.3 5.66 -4 6 C-4.33 4.68 -4.66 3.36 -5 2 C-2.625 0.9375 -2.625 0.9375 0 0 Z " fill="#4C4547" transform="translate(489,364)"/>
<path d="M0 0 C1.0828125 0.37125 1.0828125 0.37125 2.1875 0.75 C-0.50091859 3.00245881 -2.45891875 4.63213958 -5.8125 5.75 C-6.4725 5.09 -7.1325 4.43 -7.8125 3.75 C-3.50480769 -0.31153846 -3.50480769 -0.31153846 0 0 Z " fill="#9B9899" transform="translate(495.8125,363.25)"/>
<path d="M0 0 C-1.1858237 3.37503669 -2.27573689 5.64722731 -5 8 C-5.66 6.35 -6.32 4.7 -7 3 C-2.25 0 -2.25 0 0 0 Z " fill="#3E3431" transform="translate(663,701)"/>
<path d="M0 0 C2 1.8125 2 1.8125 4 4 C4 4.99 4 5.98 4 7 C4.66 7.66 5.32 8.32 6 9 C3.28071483 8.62492618 2.15781339 8.15781339 0.1875 6.1875 C-1 4 -1 4 -0.6875 1.75 C-0.460625 1.1725 -0.23375 0.595 0 0 Z " fill="#D7D5D5" transform="translate(357,663)"/>
<path d="M0 0 C0 1.98 0 3.96 0 6 C0.99 6.33 1.98 6.66 3 7 C1.35 7 -0.3 7 -2 7 C-2.12375 6.360625 -2.2475 5.72125 -2.375 5.0625 C-2.684375 4.0415625 -2.684375 4.0415625 -3 3 C-3.66 2.67 -4.32 2.34 -5 2 C-1.125 0 -1.125 0 0 0 Z " fill="#4D4A45" transform="translate(664,630)"/>
<path d="M0 0 C-1.24546405 3.73639216 -2.63404953 4.18756513 -6 6 C-6 5.34 -6 4.68 -6 4 C-6.99 3.67 -7.98 3.34 -9 3 C-8.67 2.34 -8.34 1.68 -8 1 C-5.30114269 0.42577504 -2.76207303 0 0 0 Z " fill="#B3A5A3" transform="translate(503,417)"/>
<path d="M0 0 C-0.53625 0.2475 -1.0725 0.495 -1.625 0.75 C-4.56424252 2.29696975 -7.25754408 4.13014369 -10 6 C-10 4.68 -10 3.36 -10 2 C-3.375 -1.125 -3.375 -1.125 0 0 Z " fill="#1E1E1E" transform="translate(752,685)"/>
<path d="M0 0 C1.32 0 2.64 0 4 0 C4 3 4 3 1.625 5.6875 C-1 8 -1 8 -3 8 C-3 7.01 -3 6.02 -3 5 C-2.34 5 -1.68 5 -1 5 C-0.67 3.35 -0.34 1.7 0 0 Z " fill="#DFDDDB" transform="translate(493,365)"/>
<path d="M0 0 C0.33 0.66 0.66 1.32 1 2 C0.22265625 4.1640625 0.22265625 4.1640625 -0.9375 6.625 C-1.31777344 7.44226563 -1.69804688 8.25953125 -2.08984375 9.1015625 C-2.39019531 9.72804688 -2.69054687 10.35453125 -3 11 C-4.06192476 7.73635123 -4.07454186 7.17280159 -2.625 3.8125 C-1 1 -1 1 0 0 Z " fill="#969085" transform="translate(655,713)"/>
<path d="M0 0 C0.99 0.33 1.98 0.66 3 1 C1.515 4.465 1.515 4.465 0 8 C-0.66 7.67 -1.32 7.34 -2 7 C-1.125 1.125 -1.125 1.125 0 0 Z " fill="#332E2C" transform="translate(650,717)"/>
<path d="M0 0 C2.97 0.99 5.94 1.98 9 3 C8.34 3.66 7.68 4.32 7 5 C4.5 4.875 4.5 4.875 2 4 C1.34 2.68 0.68 1.36 0 0 Z " fill="#1F2322" transform="translate(551,590)"/>
<path d="M0 0 C-2.38573379 1.89213369 -4.07175348 3.02391783 -7 4 C-7.33 2.68 -7.66 1.36 -8 0 C-4.94736336 -0.98120464 -3.05263664 -0.98120464 0 0 Z " fill="#221E20" transform="translate(490,406)"/>
<path d="M0 0 C0.33 0.99 0.66 1.98 1 3 C-1.31 3.33 -3.62 3.66 -6 4 C-6 3.34 -6 2.68 -6 2 C-6.66 1.67 -7.32 1.34 -8 1 C-5.36 0.67 -2.72 0.34 0 0 Z " fill="#DEE0E1" transform="translate(474,385)"/>
<path d="M0 0 C0.66 0.66 1.32 1.32 2 2 C0.02 3.98 -1.96 5.96 -4 8 C-4.66 7.67 -5.32 7.34 -6 7 C-4.02 4.69 -2.04 2.38 0 0 Z " fill="#8C8D8A" transform="translate(706,661)"/>
<path d="M0 0 C0.33 0 0.66 0 1 0 C1 2.31 1 4.62 1 7 C-0.65 6.67 -2.3 6.34 -4 6 C-2.84826645 3.53199953 -1.95216435 1.95216435 0 0 Z " fill="#F2F1F0" transform="translate(390,397)"/>
<path d="M0 0 C2.31 0.66 4.62 1.32 7 2 C4.64561267 3.42944945 3.51967567 4.08661261 0.75 3.625 C0.1725 3.41875 -0.405 3.2125 -1 3 C-0.67 2.01 -0.34 1.02 0 0 Z " fill="#575961" transform="translate(483,376)"/>
<path d="M0 0 C1.32 0 2.64 0 4 0 C4.12375 0.61875 4.2475 1.2375 4.375 1.875 C4.87197356 4.19120832 4.87197356 4.19120832 7 6 C5.35 5.67 3.7 5.34 2 5 C2 3.68 2 2.36 2 1 C1.34 0.67 0.68 0.34 0 0 Z " fill="#BAB9B2" transform="translate(664,628)"/>
<path d="M0 0 C0.33 1.32 0.66 2.64 1 4 C-0.98 4.33 -2.96 4.66 -5 5 C-5 4.01 -5 3.02 -5 2 C-3.35 1.34 -1.7 0.68 0 0 Z " fill="#131524" transform="translate(477,429)"/>
<path d="M0 0 C0.33 0.99 0.66 1.98 1 3 C-0.8125 4.0625 -0.8125 4.0625 -3 5 C-3.99 4.67 -4.98 4.34 -6 4 C-5.34 4 -4.68 4 -4 4 C-3.67 3.01 -3.34 2.02 -3 1 C-2.01 0.67 -1.02 0.34 0 0 Z " fill="#424244" transform="translate(479,379)"/>
</svg>
