<svg xmlns="http://www.w3.org/2000/svg" xmlns:xlink="http://www.w3.org/1999/xlink">
  <defs>
    <symbol id="check-circle-gesalt" xmlns="http://www.w3.org/2000/svg" width="24" height="24" fill="none" viewBox="0 0 24 24">
      <path stroke="currentColor" stroke-linecap="round" stroke-linejoin="round" stroke-width="1.5" d="M17.5 3.647A9.953 9.953 0 0 0 12 2C6.477 2 2 6.477 2 12s4.477 10 10 10 10-4.477 10-10a9.959 9.959 0 0 0-1.067-4.5M9 12l2 2 5-5"/>
    </symbol>

    <symbol id="chevron-down" xmlns="http://www.w3.org/2000/svg" width="24" height="24" fill="none" viewBox="0 0 24 24">
      <path stroke="currentColor" stroke-linecap="round" stroke-linejoin="round" stroke-width="1.5" d="m6 9 6 6 6-6"/>
    </symbol>

    <symbol id="github-filled" xmlns="http://www.w3.org/2000/svg" width="24" height="24" fill="none" viewBox="0 0 24 24">
      <path fill="currentColor" d="M14.51 20.906c.01-.504.025-1.247.025-1.906 0-1-.68-1.918-.68-1.918 2.258-.248 4.637-1.578 4.637-5.543 0-1.156-.403-1.693-1.049-2.436l.015-.05c.1-.35.4-1.387-.135-2.758-.847-.29-2.783 1.115-2.783 1.115-.806-.248-1.653-.33-2.54-.33-.847 0-1.694.082-2.5.33 0 0-1.976-1.363-2.782-1.115-.565 1.445-.242 2.519-.121 2.808-.645.743-.968 1.28-.968 2.436 0 3.965 2.298 5.295 4.556 5.543 0 0-.685.78-.685 1.85v3.526C4.769 21.33 1.25 17.076 1.25 12 1.25 6.063 6.063 1.25 12 1.25S22.75 6.063 22.75 12c0 5.073-3.514 9.325-8.24 10.456v-1.55Z"/>
    </symbol>

    <symbol id="send-filled" xmlns="http://www.w3.org/2000/svg" width="24" height="24" fill="none" viewBox="0 0 24 24">
      <g clip-path="url(#a)">
        <path fill="currentColor" d="M6.882 12.22C3.453 10.9 1.739 10.24 1.308 9.355a2.5 2.5 0 0 1 .113-2.396c.512-.84 2.28-1.336 5.818-2.326l9.995-2.799c2.24-.627 3.36-.94 4.127-.65a2.5 2.5 0 0 1 1.453 1.453c.291.769-.023 1.888-.65 4.128l-2.798 9.995c-.99 3.537-1.486 5.305-2.327 5.818a2.5 2.5 0 0 1-2.395.113c-.886-.431-1.545-2.146-2.864-5.574l-.692-1.801c-.135-.352-.203-.527-.207-.702a1 1 0 0 1 .095-.447c.074-.158.208-.29.474-.557l2.55-2.55A.75.75 0 0 0 12.94 10l-2.55 2.55c-.267.265-.4.398-.558.473a1 1 0 0 1-.447.095c-.175-.004-.35-.072-.702-.207l-1.801-.693Z"/>
      </g>
      <defs>
        <clipPath id="a">
          <path fill="currentColor" d="M0 0h24v24H0z"/>
        </clipPath>
      </defs>
    </symbol>

    <symbol id="twitter-filled" xmlns="http://www.w3.org/2000/svg" width="24" height="24" fill="none" viewBox="0 0 24 24">
      <path fill="currentColor" d="M16.67 2.25c-2.967 0-5.398 2.36-5.398 5.304 0 .07.002.138.005.207a12.817 12.817 0 0 1-8.154-4.42.75.75 0 0 0-1.213.091C.927 5.037.977 7.01 1.82 8.585a.759.759 0 0 0-.685.748c0 1.589.716 3.054 1.876 4.05a.759.759 0 0 0-.203.773c.474 1.502 1.61 2.69 3.059 3.282-1.474.7-3.132.98-4.776.779a.75.75 0 0 0-.495 1.376c2.158 1.38 4.734 2.157 7.53 2.157 9.028 0 13.982-7.305 13.982-13.675V7.59l.019-.018c.192-.179.437-.446.678-.813.488-.741.945-1.866.945-3.455a.75.75 0 0 0-1.13-.647 9.153 9.153 0 0 1-2.319.951A5.443 5.443 0 0 0 16.67 2.25Z"/>
    </symbol>
  </defs>
</svg>

