<svg xmlns="http://www.w3.org/2000/svg" xmlns:xlink="http://www.w3.org/1999/xlink">
  <defs>
    <symbol id="arrows-expand" xmlns="http://www.w3.org/2000/svg" width="24" height="24" fill="none" viewBox="0 0 24 24">
      <path stroke="currentColor" stroke-linecap="round" stroke-linejoin="round" stroke-width="1.5" d="M3 21v-4m0 4h4m-4 0 6-6M21 3h-4m4 0v4m0-4-6 6M3 3v4m0-4h4M3 3l6 6m12 12h-4m4 0v-4m0 4-6-6"/>
    </symbol>

    <symbol id="arrow-right" xmlns="http://www.w3.org/2000/svg" width="24" height="24" fill="none" viewBox="0 0 24 24">
      <path stroke="currentColor" stroke-linecap="round" stroke-linejoin="round" stroke-width="1.5" d="M3 12h18m0 0-7-7m7 7-7 7"/>
    </symbol>

    <symbol id="book-filled" xmlns="http://www.w3.org/2000/svg" width="24" height="24" fill="none" viewBox="0 0 24 24">
      <path fill="currentColor" fill-rule="evenodd" d="M3.25 7.65V19.5a3.25 3.25 0 0 0 3.25 3.25h8.595c.838 0 1.372 0 1.832-.091a4.75 4.75 0 0 0 3.732-3.732c.091-.46.091-.994.091-1.832V7.65c0-2.24 0-3.36-.436-4.216a4 4 0 0 0-1.748-1.748c-.856-.436-1.976-.436-4.216-.436h-4.7c-2.24 0-3.36 0-4.216.436a4 4 0 0 0-1.748 1.748C3.25 4.29 3.25 5.41 3.25 7.65Zm1.5 11.85c0 .966.784 1.75 1.75 1.75H15c.965 0 1.338-.004 1.634-.062a3.25 3.25 0 0 0 2.554-2.554c.04-.203.054-.442.06-.884H6.5a1.75 1.75 0 0 0-1.75 1.75Zm10-11.75a.75.75 0 0 0 0-1.5h-5.5a.75.75 0 0 0 0 1.5h5.5Z" clip-rule="evenodd"/>
    </symbol>

    <symbol id="btc" xmlns="http://www.w3.org/2000/svg" width="27" height="28" fill="none" viewBox="0 0 27 28">
      <path fill="#f7931a" d="M26.596 17.476c-1.803 7.232-9.13 11.633-16.363 9.83C3.003 25.503-1.4 18.177.404 10.946 2.207 3.713 9.533-.69 16.764 1.114c7.234 1.803 11.635 9.13 9.832 16.362Z"/>
      <path fill="#fff" d="M19.251 12.38c.268-1.79-1.094-2.752-2.956-3.394L16.9 6.56l-1.474-.368-.588 2.36a61.565 61.565 0 0 0-1.181-.277l.592-2.377-1.474-.368-.604 2.424c-.321-.073-.636-.145-.942-.221l.002-.008-2.034-.508-.392 1.576s1.094.251 1.07.267c.598.15.706.545.688.858l-1.655 6.643c-.073.182-.258.454-.675.35.014.022-1.072-.267-1.072-.267l-.732 1.69 1.919.478c.357.09.706.184 1.05.272l-.61 2.452 1.473.368.605-2.426c.402.109.793.21 1.175.305l-.602 2.415 1.474.368.61-2.448c2.515.476 4.405.284 5.201-1.992.642-1.833-.032-2.89-1.354-3.58.963-.222 1.689-.857 1.882-2.167Zm-3.369 4.729c-.455 1.833-3.538.842-4.538.594l.81-3.25c1 .25 4.204.744 3.728 2.656Zm.456-4.756c-.416 1.668-2.982.82-3.814.613l.734-2.947c.833.208 3.513.595 3.08 2.334Z"/>
    </symbol>

    <symbol id="check-circle-gesalt" xmlns="http://www.w3.org/2000/svg" width="24" height="24" fill="none" viewBox="0 0 24 24">
      <path stroke="currentColor" stroke-linecap="round" stroke-linejoin="round" stroke-width="1.5" d="M17.5 3.647A9.953 9.953 0 0 0 12 2C6.477 2 2 6.477 2 12s4.477 10 10 10 10-4.477 10-10a9.959 9.959 0 0 0-1.067-4.5M9 12l2 2 5-5"/>
    </symbol>

    <symbol id="chevron-down" xmlns="http://www.w3.org/2000/svg" width="24" height="24" fill="none" viewBox="0 0 24 24">
      <path stroke="currentColor" stroke-linecap="round" stroke-linejoin="round" stroke-width="1.5" d="m6 9 6 6 6-6"/>
    </symbol>

    <symbol id="external-link" xmlns="http://www.w3.org/2000/svg" width="24" height="24" fill="none" viewBox="0 0 24 24">
      <path stroke="currentColor" stroke-linecap="round" stroke-linejoin="round" stroke-width="1.5" d="M10 3h-.5v0c-1.395 0-2.092 0-2.667.138a5 5 0 0 0-3.695 3.695C3 7.408 3 8.105 3 9.5V13c0 2.8 0 4.2.545 5.27a5 5 0 0 0 2.185 2.185C6.8 21 8.2 21 11 21h3.5c1.395 0 2.092 0 2.667-.138a5 5 0 0 0 3.695-3.695C21 16.592 21 15.894 21 14.5v0-.5m-9-2 9-9m0 0h-6m6 0v6"/>
    </symbol>

    <symbol id="github-filled" xmlns="http://www.w3.org/2000/svg" width="24" height="24" fill="none" viewBox="0 0 24 24">
      <path fill="currentColor" d="M14.51 20.906c.01-.504.025-1.247.025-1.906 0-1-.68-1.918-.68-1.918 2.258-.248 4.637-1.578 4.637-5.543 0-1.156-.403-1.693-1.049-2.436l.015-.05c.1-.35.4-1.387-.135-2.758-.847-.29-2.783 1.115-2.783 1.115-.806-.248-1.653-.33-2.54-.33-.847 0-1.694.082-2.5.33 0 0-1.976-1.363-2.782-1.115-.565 1.445-.242 2.519-.121 2.808-.645.743-.968 1.28-.968 2.436 0 3.965 2.298 5.295 4.556 5.543 0 0-.685.78-.685 1.85v3.526C4.769 21.33 1.25 17.076 1.25 12 1.25 6.063 6.063 1.25 12 1.25S22.75 6.063 22.75 12c0 5.073-3.514 9.325-8.24 10.456v-1.55Z"/>
    </symbol>

    <symbol id="nostr-filled" xmlns="http://www.w3.org/2000/svg" width="620" height="620" fill="none" viewBox="0 0 620 620">
      <path fill="currentColor" d="M457.468 262.483c11.881 82.304-73.312 99.719-122.325 98.197-3.147-.098-6.113 1.434-7.972 3.975-5.07 6.931-13.175 15.894-19.432 15.894-7.027 0-13.351 13.514-16.235 21.921-.303.883.565 1.697 1.453 1.409 77.623-25.204 108.082-33.849 121.204-31.419 10.593 1.961 30.406 37.425 38.988 54.912-21.333 1.226-28.444-17.896-33.348-21.328-3.924-2.745-5.395 9.806-5.64 16.425-4.659-2.451-10.544-5.883-11.035-16.425-.49-10.541-5.885-7.844-10.053-7.354-4.169.49-68.169 21.082-77.732 23.779-9.563 2.697-20.598 6.374-29.67 12.747-15.204 7.355-25.012 2.207-27.709-10.296-2.158-10.002 11.852-40.775 19.126-54.912-8.991 3.35-27.66 10.149-30.406 10.541-2.663.381-36.447 26.462-54.513 40.632-1.054.827-1.732 2.038-1.975 3.355-2.89 15.705-12.116 20.101-28.11 28.331-12.87 6.623-57.821 75.699-80.934 112.989-1.599 2.578-3.944 4.56-6.463 6.25-14.682 9.856-29.634 34.938-35.698 47.214-8.632-24.907 2.615-46.332 9.318-53.932-2.943-2.549-9.727-1.062-12.751 0 8.337-28.682 37.517-28.682 36.536-28.682 5.395-4.658 68.659-95.116 70.13-99.283 1.46-4.134-.942-23.466 30.855-34.065a6.57 6.57 0 0 0 1.453-.686c24.772-15.922 43.355-41.588 49.593-52.521-33.073-2.274-70.946-20.713-90.748-32.556-4.269-2.553-8.796-4.775-13.739-5.334-27.113-3.069-54.26 14.275-65.2 24.162-4.511-6.275.573-24.514 3.679-32.849-10.986-1.569-27.137 14.382-33.84 22.553-7.257-11.374-.898-31.705 3.189-40.449-14.517.393-24.358 7.028-27.464 10.297 12.015-89.478 103.921-63.455 104.95-62.267-4.904-5.099-4.495-11.767-3.678-14.464 55.663 1.471 81.655-7.844 98.084-17.405 129.472-72.317 185.257-27.946 205.855-16.792 20.597 11.154 57.992 15.689 83.862 5.393 30.896-13.973 26.245-49.991 19.984-63.738-6.865-15.076-45.609-35.914-59.341-62.266-13.731-26.353-1.766-58.4 14.142-62.866 15.156-4.256 25.98.695 34.287 8.198 5.539 5.002 21.089 8.58 27.587 10.91 6.498 2.328 17.287 5.392 16.674 7.231-.613 1.839-11.016 1.593-12.628 1.593-3.311 0-7.234.49-3.311 2.33 4.601 1.865 11.546 4.576 14.871 6.362.432.232.343.836-.131.963-22.565 6.073-42.713-6.458-57.652 7.996-15.203 14.708 17.165 25.985 33.84 43.635 16.674 17.651 33.839 38.733 20.107 86.781-10.631 37.198-55.186 68.824-78.2 81.195-1.323.712-2.049 2.232-1.834 3.719Z"/>
    </symbol>

    <symbol id="email-filled" xmlns="http://www.w3.org/2000/svg" width="24" height="24" fill="none" viewBox="0 0 24 24">
      <path fill="currentColor" fill-rule="evenodd" d="M3.98 2.795c1.07-.545 2.47-.545 5.27-.545h5.5c2.8 0 4.2 0 5.27.545a5 5 0 0 1 2.185 2.185c.545 1.07.545 2.47.545 5.27v3.5c0 2.8 0 4.2-.545 5.27a5 5 0 0 1-2.185 2.185c-1.07.545-2.47.545-5.27.545h-5.5c-2.8 0-4.2 0-5.27-.545a5 5 0 0 1-2.185-2.185c-.545-1.07-.545-2.47-.545-5.27v-3.5c0-2.8 0-4.2.545-5.27A5 5 0 0 1 3.98 2.795Zm2.436 4.581a.75.75 0 0 0-.832 1.248l1 .667.116.077c1.499 1 2.39 1.594 3.353 1.884a6.75 6.75 0 0 0 3.894 0c.963-.29 1.854-.885 3.353-1.884l.116-.077 1-.667a.75.75 0 1 0-.832-1.248l-1 .667c-1.65 1.1-2.347 1.555-3.07 1.773a5.25 5.25 0 0 1-3.028 0c-.723-.218-1.42-.673-3.07-1.773l-1-.667Z" clip-rule="evenodd"/>
  

    <symbol id="twitter-filled" xmlns="http://www.w3.org/2000/svg" width="24" height="24" fill="none" viewBox="0 0 24 24">
      <path fill="currentColor" d="M16.67 2.25c-2.967 0-5.398 2.36-5.398 5.304 0 .07.002.138.005.207a12.817 12.817 0 0 1-8.154-4.42.75.75 0 0 0-1.213.091C.927 5.037.977 7.01 1.82 8.585a.759.759 0 0 0-.685.748c0 1.589.716 3.054 1.876 4.05a.759.759 0 0 0-.203.773c.474 1.502 1.61 2.69 3.059 3.282-1.474.7-3.132.98-4.776.779a.75.75 0 0 0-.495 1.376c2.158 1.38 4.734 2.157 7.53 2.157 9.028 0 13.982-7.305 13.982-13.675V7.59l.019-.018c.192-.179.437-.446.678-.813.488-.741.945-1.866.945-3.455a.75.75 0 0 0-1.13-.647 9.153 9.153 0 0 1-2.319.951A5.443 5.443 0 0 0 16.67 2.25Z"/>
    </symbol>

    <symbol id="x" xmlns="http://www.w3.org/2000/svg" width="24" height="24" fill="none" viewBox="0 0 24 24">
      <path stroke="currentColor" stroke-linecap="round" stroke-linejoin="round" stroke-width="1.5" d="M6 18 18 6M6 6l12 12"/>
    </symbol>
  </defs>
</svg>

